<?xml version="1.0" encoding="UTF-8" standalone="no"?>
<svg width="211px" height="209px" viewBox="0 0 211 209" version="1.1" xmlns="http://www.w3.org/2000/svg" xmlns:xlink="http://www.w3.org/1999/xlink">
    <!-- Generator: Sketch 40.2 (33826) - http://www.bohemiancoding.com/sketch -->
    <title>coir</title>
    <desc>Created with Sketch.</desc>
    <defs>
        <polygon id="path-1" points="209.937308 208.062448 0 208.062448 0 0.0631269808 209.937308 0.0631269808"></polygon>
    </defs>
    <g id="Materials---Home" stroke="none" stroke-width="1" fill="none" fill-rule="evenodd">
        <g id="Materials" transform="translate(-290.000000, -1142.000000)">
            <g id="coir" transform="translate(290.854545, 1142.000000)">
                <path d="M117.170937,121.811927 C116.99102,122.149062 116.826748,122.486196 116.658565,122.821392 C116.441491,123.466597 116.226373,124.131177 116.015166,124.762819 C114.935664,127.673023 113.717313,130.387533 112.352291,132.824974 C111.716715,134.057257 110.899266,135.181037 110.214799,136.264129 C109.475575,137.33947 108.634658,138.296621 107.920857,139.226646 C107.171855,140.028793 106.450231,140.770875 105.744253,141.441268 C105.855723,141.7164 105.992617,142.012846 106.113865,142.284103 C107.209012,144.638229 108.202466,146.788912 109.105963,148.734214 C110.203065,147.488368 111.37057,146.170833 112.473539,144.634354 C114.03999,142.751053 115.266164,140.501555 116.801325,138.232682 C117.429079,137.050775 118.074433,135.82818 118.731521,134.584271 C119.05811,133.962317 119.394476,133.338425 119.730843,132.699033 C120.012452,132.048015 120.297973,131.393123 120.585449,130.732417 C121.156489,129.411007 121.74122,128.064408 122.331817,126.704247 C122.472621,126.299298 122.613426,125.880787 122.754231,125.468088 C121.221025,124.043987 119.54897,122.410631 117.792824,120.581582 C117.583573,120.99428 117.376277,121.410854 117.170937,121.811927" id="Fill-1" fill="#B18865"></path>
                <path d="M110.666351,131.828878 C110.586171,131.927693 110.498168,132.036196 110.421899,132.142762 C109.24266,133.74318 107.838526,135.184718 106.504793,136.589444 C105.877039,137.3044 105.188661,137.959293 104.48855,138.59481 C104.785804,139.261328 105.061546,139.88522 105.339244,140.528487 C105.826193,139.956909 106.307276,139.367894 106.800092,138.720751 C108.069289,136.858764 109.342397,134.708081 110.480568,132.282265 C110.545103,132.138887 110.601816,131.972257 110.666351,131.828878" id="Fill-3" fill="#B18865"></path>
                <path d="M130.304682,84.010673 C129.999605,84.0377987 129.690617,84.0552367 129.389452,84.0784873 C129.669105,84.55125 129.938981,85.0182001 130.218634,85.4948379 C130.246013,84.979449 130.26948,84.5105614 130.304682,84.010673" id="Fill-5" fill="#B18865"></path>
                <path d="M117.480316,84.7713559 C113.486941,84.9263601 109.342984,85.0057997 105.081689,85.0057997 C103.202339,85.0057997 101.350367,84.9864242 99.5179518,84.9573609 C99.635289,85.6878181 99.7526261,86.4182752 99.8484515,87.1487324 C100.171129,89.1308482 100.452738,91.1207142 100.701102,93.120268 C101.137205,93.8836636 101.559618,94.6567469 101.999633,95.4162673 C103.796847,98.3535963 105.533437,101.259925 107.432344,103.995748 C110.164344,108.052982 112.964791,111.829271 115.642034,115.223863 C115.647901,115.192862 115.653768,115.163799 115.657679,115.128923 C116.037069,113.54013 116.160273,111.900961 116.436015,110.257917 C116.682423,108.612935 116.926876,106.94664 117.063769,105.233844 C117.235864,103.526861 117.400136,101.804377 117.57223,100.078018 C117.626988,98.3729719 117.685656,96.6621133 117.738458,94.9512548 L117.853839,92.3704354 L117.748236,89.8051163 C117.652411,88.1213835 117.675878,86.4318381 117.480316,84.7713559" id="Fill-7" fill="#B18865"></path>
                <path d="M118.628265,118.932144 C120.245562,120.892946 121.774856,122.685182 123.167257,124.279788 C123.370642,123.681084 123.568159,123.090131 123.779366,122.489489 C124.866691,119.685851 125.545291,116.744647 126.272781,113.822819 C127.158677,110.916491 127.545889,107.942348 128.091507,105.03602 C128.314448,103.578981 128.676237,102.149067 128.82682,100.707528 C128.985225,99.2737398 129.145586,97.8535141 129.294213,96.456539 C129.458485,94.7476181 129.685337,93.0774481 129.85352,91.4460292 C129.08105,90.0122407 128.277291,88.5939525 127.450064,87.181477 C126.71084,90.6632582 125.971616,94.16829 125.222613,97.6868846 C124.73762,99.7581279 124.26436,101.827434 123.783277,103.892864 C123.202458,105.960232 122.62164,108.025663 122.050599,110.073655 C121.569516,112.139086 120.576062,114.099889 119.854438,116.074254 C119.504382,117.050781 119.080013,118.002119 118.628265,118.932144" id="Fill-9" fill="#B18865"></path>
                <path d="M94.8455859,150.833552 C95.8175287,151.722888 96.7503592,152.573474 97.6362548,153.379495 C98.5475734,154.179704 99.4706258,154.898536 100.305675,155.594118 C100.46408,155.725871 100.618574,155.840187 100.778935,155.968065 C100.941252,155.871188 101.136814,155.745247 101.377355,155.590242 C102.063777,155.113605 103.068966,154.414148 104.222781,153.437622 C104.287316,153.383371 104.345985,153.327182 104.412476,153.282618 C103.595027,152.6316 102.783445,151.953457 101.895594,151.265626 C100.546216,150.182534 99.4119572,148.876624 98.0684467,147.609465 C97.3605125,146.859633 96.6604007,146.065236 95.9759339,145.26309 C95.3051564,145.687414 94.6480683,146.096237 94.0242257,146.48956 C93.2517561,146.923572 92.5027538,147.332395 91.7733078,147.723781 C91.8417545,147.80322 91.9278017,147.878785 91.9903815,147.958225 C92.9584132,148.959939 93.8306194,149.971341 94.8455859,150.833552" id="Fill-11" fill="#B18865"></path>
                <path d="M89.0896113,144.805246 C89.691942,145.622893 90.4135656,146.341725 91.1234555,147.052807 C91.7981442,146.640108 92.4845666,146.206096 93.196412,145.743021 C93.8319883,145.274134 94.4988546,144.797496 95.1774545,144.297607 C93.7146512,142.515059 92.3066052,140.616258 91.0315413,138.564391 L90.1925806,137.301107 L89.5061582,135.971946 C89.3164631,135.601873 89.1248124,135.220176 88.9312061,134.844291 C87.7265445,135.772378 86.3889009,136.590025 85.1353488,137.471611 C84.7461806,137.698305 84.368746,137.917248 83.9874002,138.143942 C84.7383581,139.242534 85.4306473,140.350814 86.2793862,141.362216 C87.2376397,142.534435 88.1782926,143.685341 89.0896113,144.805246" id="Fill-13" fill="#B18865"></path>
                <path d="M120.992413,100.279329 C120.953301,100.628089 120.916144,100.971035 120.877031,101.319795 C121.178197,99.9654459 121.479362,98.6072219 121.778572,97.2489979 C122.772027,92.9418195 123.706813,88.6501415 124.625954,84.4146526 C123.388047,84.4921547 122.122761,84.5638441 120.843786,84.6239082 C121.06086,86.3153912 121.06086,88.0223746 121.174286,89.7332332 L121.311179,92.3624914 L121.232954,94.9917496 C121.152774,96.7646098 121.074549,98.5239072 120.992413,100.279329" id="Fill-15" fill="#B18865"></path>
                <path d="M87.0594828,99.9803651 C86.9323675,100.794137 86.8287197,101.607909 86.8150303,102.429431 C86.6605364,104.529737 86.5060425,106.633919 86.3437261,108.730351 C86.3241699,110.822907 86.5275543,112.907713 86.6096903,114.973143 C86.5999122,117.052137 87.0868614,119.073004 87.4173611,121.082245 C87.5914112,122.087835 87.7654614,123.087612 87.9375559,124.079638 C88.1859195,125.058102 88.5359754,126.019128 88.8175846,126.978216 C89.175463,128.05162 89.4844508,129.123087 89.8423292,130.175177 L91.312955,128.67745 C92.6290868,127.480042 93.4817369,126.069504 94.5123483,124.736469 C94.7392002,124.430335 94.9347621,124.108702 95.1303241,123.779318 C94.0214879,121.17331 92.941986,118.501426 91.9661319,115.753977 C90.6363107,112.376824 89.6604566,108.877604 88.512508,105.403573 C87.972757,103.605525 87.5073196,101.790039 87.0594828,99.9803651" id="Fill-17" fill="#B18865"></path>
                <path d="M99.3126117,145.509159 C100.198507,145.051896 101.432503,144.305939 102.734946,143.162783 C103.122158,142.852775 103.501549,142.504015 103.878983,142.126193 C103.534794,141.467425 103.173004,140.785407 102.81317,140.105326 C102.67041,140.229329 102.519828,140.359145 102.380979,140.487024 C101.055069,141.728995 99.521863,142.757835 98.186175,143.802175 C97.9886574,143.937804 97.7911398,144.05987 97.5936223,144.191623 C98.0003911,144.718637 98.4091156,145.232089 98.8276181,145.731977 C98.9782008,145.668038 99.1307391,145.596349 99.3126117,145.509159" id="Fill-19" fill="#B18865"></path>
                <path d="M98.8389607,124.96045 C100.047534,128.153536 101.342154,131.216805 102.552682,134.125071 C102.92425,135.014408 103.297773,135.85918 103.677163,136.713641 C104.007663,136.355194 104.363586,136.010309 104.668662,135.620861 C105.888969,134.216136 107.171855,132.782348 108.225934,131.185805 C108.787197,130.403034 109.356282,129.6067 109.927323,128.804553 C110.48663,127.994656 110.930556,127.12857 111.439017,126.277985 C111.943566,125.425462 112.455939,124.563251 112.972222,123.693291 C113.472861,122.821392 113.84834,121.899117 114.303999,120.98653 C114.356801,120.874152 114.415469,120.759837 114.466315,120.641646 C114.54454,120.370389 114.612987,120.104944 114.689256,119.829812 C114.833972,119.143918 114.978688,118.436712 115.119492,117.746943 C111.720626,114.053969 108.143798,109.801042 104.717553,105.07729 C103.606761,103.552436 102.519436,101.975269 101.445801,100.367101 C101.608118,102.405405 101.737189,104.449523 101.807591,106.49364 L101.876038,111.32202 C101.811502,112.990253 101.582695,114.648797 101.432112,116.313155 C101.072278,117.956199 100.532527,119.587618 100.029933,121.213224 C99.4980045,122.185875 99.0540789,123.197277 98.5358397,124.173803 C98.6375319,124.431498 98.7411798,124.702755 98.8389607,124.96045" id="Fill-21" fill="#B18865"></path>
                <path d="M92.7143519,84.775231 C91.8597462,84.7442302 91.0149186,84.7035416 90.1779135,84.6647906 C89.7867896,86.410525 89.3995769,88.1426966 88.9693407,89.9291197 C88.818758,90.5607617 88.7072877,91.1943412 88.582128,91.8298583 C88.7659563,92.7191947 88.9556513,93.600781 89.1316571,94.4978676 C90.0625319,97.9060218 90.8526022,101.391678 91.922326,104.836646 C93.0135616,108.275801 93.9424808,111.745957 95.2195003,115.097922 C95.8042305,116.779717 96.3987388,118.451825 96.9736909,120.100681 L96.9736909,120.108432 C97.4078384,118.734707 97.8693646,117.357108 98.1959531,115.96982 C98.3367577,114.425591 98.5733876,112.881362 98.6496568,111.333258 L98.628145,106.520379 C98.5362308,102.515458 98.2370211,98.5124756 97.8009179,94.5075554 C96.4163394,92.1243662 95.051317,89.7140514 93.8446999,87.24561 C93.4398867,86.4299005 93.0820083,85.5967531 92.7143519,84.775231" id="Fill-23" fill="#B18865"></path>
                <path d="M73.5172095,87.4657159 C73.5602331,86.111367 73.5856561,84.7531429 73.616946,83.3968564 C73.2864464,83.360043 72.9461686,83.325167 72.6195801,83.2844784 C72.6547813,83.4239822 72.7056274,83.5557357 72.7369173,83.697177 C73.067417,85.0030872 73.3079582,86.3264353 73.5172095,87.6594711 L73.5172095,87.4657159" id="Fill-25" fill="#B18865"></path>
                <path d="M113.036367,158.281115 C113.456825,158.546559 113.793191,158.730627 114.174537,158.968946 C114.156936,158.943758 113.902706,158.598873 113.456825,157.947856 C113.306242,158.062171 113.167393,158.162924 113.022677,158.273365 C113.026588,158.27724 113.0305,158.27724 113.036367,158.281115" id="Fill-27" fill="#B18865"></path>
                <path d="M72.6805955,111.999388 C72.8214001,113.504866 73.4491539,114.958031 73.8265884,116.457696 C74.2666028,117.936048 74.7046616,119.435714 75.1388091,120.925691 C75.612069,122.227726 76.1791986,123.510386 76.7091715,124.79692 L76.3864943,123.064749 L75.113386,114.194635 C74.7222621,111.234055 74.5110552,108.263788 74.2059786,105.297396 C74.0417066,103.915921 73.9517481,102.526696 73.8833014,101.139409 C73.6251596,104.611502 73.1734116,108.052595 72.5925926,111.431686 C72.6199713,111.621566 72.6532168,111.805633 72.6805955,111.999388" id="Fill-29" fill="#B18865"></path>
                <path d="M119.01978,150.93198 C121.032112,148.69992 123.181338,146.262479 125.125223,143.547968 C127.112133,140.847021 128.995394,137.925192 130.706561,134.828984 C132.490086,131.754089 133.851197,128.442812 135.181019,125.077284 C136.340701,121.674943 137.420203,118.195099 137.940398,114.643566 C138.128137,113.668977 138.280675,112.692451 138.403879,111.712049 C138.32761,111.351665 138.263075,110.993218 138.214184,110.625083 C138.026445,108.571277 137.093614,106.618225 136.440437,104.608983 C135.200575,101.826659 133.821863,99.038521 132.39035,96.2561962 C132.37666,96.3782619 132.372749,96.4945151 132.35906,96.6165808 C132.175231,99.4550947 132.036383,102.390486 131.441874,105.339441 C130.923635,108.301958 130.571624,111.330352 129.703329,114.300619 C128.919125,117.282512 128.185768,120.26828 127.033908,123.139732 C126.558693,124.437892 126.101078,125.720551 125.588705,126.989648 C126.155835,127.60579 126.70732,128.196743 127.202091,128.714069 C129.427586,131.079821 130.775008,132.397356 130.775008,132.397356 C130.775008,132.397356 129.194867,131.23095 126.672118,129.027953 C126.241882,128.65013 125.74711,128.206431 125.262117,127.768544 C124.655875,129.031828 124.057455,130.285424 123.468814,131.51577 C123.146137,132.18035 122.829326,132.846868 122.51056,133.505636 C122.156593,134.156653 121.757647,134.780545 121.376301,135.412187 C120.619476,136.661908 119.87243,137.884504 119.148851,139.072223 C117.433772,141.36241 115.965102,143.575094 114.171799,145.425456 C112.724641,147.171191 111.11321,148.62823 109.683653,149.943828 C110.495235,151.646936 111.226636,153.160165 111.875902,154.413761 C112.353073,155.359286 112.759842,156.161433 113.10012,156.831826 C114.940358,155.120967 116.942912,153.138851 119.01978,150.93198" id="Fill-31" fill="#B18865"></path>
                <path d="M155.368682,75.1062646 C148.498591,72.7366384 131.560971,69.8574359 105.081885,69.8574359 C78.6086646,69.8574359 61.665178,72.7366384 54.7931314,75.1062646 C61.665178,77.4720158 78.6086646,80.3550934 105.081885,80.3550934 C131.560971,80.3550934 148.498591,77.4720158 155.368682,75.1062646" id="Fill-33" fill="#B18865"></path>
                <path d="M81.1449074,151.919744 C81.2211766,151.892618 81.2818008,151.871305 81.367848,151.840304 C81.8489304,151.665924 82.4336606,151.439231 83.0692369,151.177661 C83.053592,151.125347 83.0418582,151.074971 83.0242577,151.022657 C81.9212883,150.425891 80.818319,149.803937 79.7016603,149.116106 C77.3822957,147.746256 75.0042625,146.205902 72.6360073,144.502794 C73.4964799,145.345629 74.3686861,146.174902 75.258493,147.000299 C77.1417545,148.687907 79.0856402,150.346451 81.1449074,151.919744" id="Fill-35" fill="#B18865"></path>
                <path d="M87.546432,132.124161 C86.858054,130.639996 86.4023946,129.078329 85.8391762,127.514725 C85.5125878,126.526573 85.1214639,125.536484 84.8418103,124.525082 C84.6325591,123.507867 84.4193966,122.477089 84.2101453,121.444374 C83.7975096,119.371193 83.2518918,117.282512 83.2479805,115.143454 C83.1443327,113.010209 82.9213921,110.855651 82.9155252,108.699156 C83.0524186,106.546535 83.19909,104.39004 83.337939,102.223857 C83.379007,100.051861 83.9911159,97.9302412 84.3568167,95.7950587 C84.648204,94.3980837 84.9141683,92.9875457 85.1996887,91.5944457 C84.7772749,89.2519452 84.3783285,86.9288202 84.0380508,84.6618842 C84.0282727,84.5436935 84.016539,84.4351906 84.0067609,84.3247502 C81.3784084,84.1387452 78.8361031,83.9314271 76.4072238,83.6931082 C76.4170019,84.9486419 76.4326469,86.2099884 76.42678,87.4655222 L76.4541587,91.8850786 L76.6907886,96.3065725 C76.884395,99.2574644 76.9352411,102.202544 77.3146312,105.137935 C77.6490421,108.079139 77.8778496,111.022281 78.2943966,113.95961 L79.653552,122.746409 L81.3784084,131.496394 C81.7206418,132.922433 82.0394077,134.352346 82.371863,135.784197 L82.8979246,135.466439 C84.386151,134.387222 86.071895,133.445572 87.3919381,132.25204 L87.546432,132.124161 Z" id="Fill-37" fill="#B18865"></path>
                <path d="M108.177826,149.792893 C108.195426,149.773517 108.216938,149.752204 108.232583,149.728954 C107.00641,147.696461 105.658988,145.384962 104.247031,142.81383 C104.235297,142.804142 104.225519,142.784767 104.219652,142.773141 C103.887197,143.038586 103.556697,143.294343 103.22033,143.519099 C101.777083,144.619629 100.357304,145.23577 99.4088282,145.634906 C99.2191331,145.70272 99.0548611,145.762784 98.8905891,145.815098 C99.1545977,146.132857 99.4127395,146.462241 99.6767481,146.772249 C101.57761,148.899681 103.492162,150.80042 105.361734,152.472527 C106.23394,151.691694 107.158948,150.788795 108.177826,149.792893" id="Fill-39" fill="#B18865"></path>
                <path d="M71.0498044,119.045684 C70.7662396,120.28378 70.4689855,121.508313 70.1599976,122.723158 C69.8979446,123.738436 69.6398028,124.74015 69.3816611,125.736052 C69.1489424,126.720328 68.9084012,127.685229 68.6815493,128.65013 C68.2219788,130.599308 67.701784,132.505859 67.537512,134.331033 C67.414308,135.224245 67.2969708,136.105831 67.177678,136.971917 C68.5994133,138.405705 70.0700391,139.763929 71.5954223,141.029151 C71.6580021,141.081465 71.7088482,141.124091 71.7675168,141.17253 C73.8795857,140.279318 75.9603648,139.349293 77.9296735,138.301077 C78.4029334,138.064696 78.8488147,137.797314 79.3103408,137.54737 C79.1832256,136.991292 79.042421,136.435215 78.9172613,135.879137 C77.7947358,134.141153 76.7719468,132.335354 75.7296017,130.512118 C74.8202387,129.103517 74.35089,127.574789 73.6605564,126.092561 C73.0288913,124.596771 72.3307352,123.110669 71.7636055,121.595503 C71.5269756,120.741042 71.2864344,119.892395 71.0498044,119.045684" id="Fill-41" fill="#B18865"></path>
                <path d="M80.9462165,147.980313 C81.4155651,148.286446 81.8810026,148.579016 82.3483956,148.869649 C81.5094349,146.157076 80.7369652,143.427065 80.0564096,140.691242 C80.0309866,140.586614 80.0094748,140.476173 79.9801405,140.369608 C79.9410281,140.385108 79.9077826,140.412234 79.8628033,140.43161 C78.0069205,141.400386 76.0806354,142.278097 74.125016,143.105432 C76.3935345,144.90348 78.6952985,146.523274 80.9462165,147.980313" id="Fill-43" fill="#B18865"></path>
                <path d="M96.4364823,84.8924529 C96.4759348,84.9720217 96.5088119,85.0548383 96.5449766,85.1327832 C96.5351135,85.0548383 96.5268942,84.9752694 96.5170311,84.8957006 C96.4874418,84.8924529 96.4627839,84.8924529 96.4364823,84.8924529" id="Fill-45" fill="#B18865"></path>
                <path d="M101.965214,138.481657 C101.333549,137.274562 100.701884,136.048092 100.095642,134.761557 C98.9437819,132.347367 97.7176086,129.801424 96.5774824,127.166353 C95.8382583,128.206818 95.0814336,129.243409 94.097757,130.167621 L92.1382264,132.188488 L91.0548132,133.08945 C91.3716236,133.804406 91.698212,134.523238 92.0071999,135.230445 L92.6017082,136.536355 L93.3448436,137.782201 C94.3910999,139.661626 95.5507822,141.426736 96.7730444,143.087219 C96.8454023,143.023279 96.9275383,142.972903 97.0038075,142.905089 C98.2123803,141.820059 99.6693167,140.800907 100.885712,139.537623 C101.229901,139.188864 101.603424,138.834292 101.965214,138.481657" id="Fill-47" fill="#B18865"></path>
                <path d="M112.54179,158.636849 C111.544424,159.386682 110.615505,160.055138 109.733521,160.677092 C111.569848,160.529838 113.380751,160.297332 115.168187,159.987323 C114.397673,159.621126 113.546979,159.192927 112.61806,158.681413 C112.592636,158.671725 112.563302,158.65235 112.54179,158.636849" id="Fill-49" fill="#B18865"></path>
                <path d="M99.4119572,156.294349 C98.4771711,155.654957 97.4504709,154.988439 96.4237708,154.246356 C95.4400942,153.471335 94.4055715,152.657564 93.3299808,151.810853 C92.2133222,150.977706 91.2296456,150.00118 90.1520993,149.024653 C90.0484515,148.925838 89.9272031,148.825085 89.8255109,148.722395 C88.6912516,149.278473 87.6117497,149.774486 86.6085169,150.175559 C86.5048691,150.220123 86.4070881,150.251124 86.3034403,150.295688 C86.4227331,150.696761 86.5498483,151.101709 86.6769636,151.502782 C90.5706019,153.761968 94.0750718,155.532891 96.8657407,156.801988 C100.95103,158.685288 103.432711,159.590125 103.432711,159.590125 C103.432711,159.590125 100.827826,158.898419 96.5313298,157.243749 C94.3918822,156.41254 91.8280651,155.344948 88.9591715,154.011912 C88.3881306,153.740655 87.7916667,153.45196 87.1932471,153.161327 C87.6625958,154.58349 88.1573675,155.999841 88.6677842,157.394878 L89.1586446,158.727914 C94.192409,160.121014 99.4940932,160.88441 104.962005,160.88441 C105.724697,160.88441 106.469788,160.855347 107.21879,160.828221 C106.473699,160.467836 105.560425,160.002824 104.480923,159.407995 C103.065054,158.56516 101.263929,157.592509 99.4119572,156.294349" id="Fill-51" fill="#B18865"></path>
                <path d="M105.735257,154.296151 C105.451692,154.094646 105.181817,153.871827 104.902163,153.656759 C104.837628,153.701323 104.76527,153.755574 104.700734,153.796263 C103.417848,154.712725 102.248388,155.288178 101.487652,155.700877 C101.225599,155.83263 101.014392,155.931445 100.834475,156.02251 C102.309012,157.214105 103.752259,158.179006 104.909986,159.016028 C106.054023,159.752298 106.951652,160.374252 107.675231,160.816014 C107.966619,160.800514 108.254095,160.786951 108.545482,160.7637 C109.50178,159.998367 110.546081,159.112906 111.651006,158.126692 C109.861614,157.095914 107.868838,155.84038 105.735257,154.296151" id="Fill-53" fill="#B18865"></path>
                <path d="M72.7838522,148.525152 C71.5752794,147.389747 70.3960409,146.227216 69.2520035,145.051121 C69.0251517,145.138311 68.792433,145.233251 68.5577586,145.320441 C68.2253033,145.440569 67.8948036,145.55101 67.5584371,145.671138 C67.7148867,146.451972 67.8948036,147.211492 68.0942768,147.953574 C72.4905093,151.476044 77.4128033,154.382372 82.7183988,156.544681 C81.4746248,155.659219 80.2621408,154.769883 79.069213,153.845671 C76.8534962,152.150312 74.7844508,150.352264 72.7838522,148.525152" id="Fill-55" fill="#B18865"></path>
                <path d="M86.9485991,145.914107 C86.0490142,144.92208 85.1142281,143.897115 84.1755308,142.860525 C84.7015924,144.862016 85.2413434,146.863508 85.8514966,148.855311 C85.9453664,149.16532 86.0490142,149.479203 86.1448396,149.793086 C86.1859076,149.773711 86.2269756,149.754335 86.2641323,149.736897 C87.1989184,149.297073 88.1962843,148.768121 89.230807,148.177168 C88.4407367,147.458336 87.6408884,146.735629 86.9485991,145.914107" id="Fill-57" fill="#B18865"></path>
                <path d="M81.4407926,151.972639 C81.3782128,151.992014 81.3293223,152.00364 81.2686981,152.017203 C81.3136774,152.055954 81.3586566,152.09083 81.4055915,152.127643 C82.2484634,152.767035 83.1206697,153.398677 84.0006984,154.024507 C83.7073555,153.168109 83.4394357,152.309773 83.1656489,151.4495 C82.5163833,151.65488 81.9179638,151.83701 81.4407926,151.972639" id="Fill-59" fill="#B18865"></path>
                <path d="M155.063019,80.0373348 C155.180356,80.3395929 155.30356,80.6496013 155.424808,80.9460468 C156.780053,84.3658263 157.922134,87.7081037 158.966435,90.8798765 C159.987269,94.057462 160.914232,97.0664805 161.698436,99.8584931 C162.474816,102.538128 163.073236,105.006569 163.554318,107.230879 C163.6697,105.713776 163.747925,104.192797 163.747925,102.644693 C163.747925,94.1524021 161.890086,86.0883101 158.575311,78.8069892 C157.570123,79.2313131 156.388929,79.6440117 155.063019,80.0373348" id="Fill-61" fill="#B18865"></path>
                <g id="Group-65" transform="translate(0.000000, 0.682018)">
                    <mask id="mask-2" fill="white">
                        <use xlink:href="#path-1"></use>
                    </mask>
                    <g id="Clip-64"></g>
                    <path d="M104.965525,165.485515 C96.4703145,165.485515 88.3681833,163.828908 80.9387851,160.839265 C80.6982439,160.785013 80.4264128,160.717199 80.117425,160.633884 C78.8404055,160.263812 76.982567,159.61667 74.9565453,158.386324 C74.2838123,157.989126 73.616946,157.496987 72.9559467,156.968036 C68.3680635,154.332965 64.1361031,151.157317 60.3539352,147.522469 L59.8376517,147.698786 L58.4648068,148.2103 L57.3774824,148.706313 L55.5118215,149.564649 L54.831266,148.225801 C52.7387532,144.124003 50.9728289,139.991204 49.4728688,135.76734 C48.9311622,134.201798 48.4422573,132.622693 47.9924649,131.037776 C43.4417385,122.322666 40.854454,112.437275 40.854454,101.966744 C40.854454,91.9457239 43.2148867,82.4691565 47.4038234,74.031117 C47.421424,74.0388672 47.4390246,74.0427423 47.462492,74.0466174 C48.6143519,68.7551625 73.9611351,64.5254862 105.082862,64.5254862 C136.934036,64.5254862 162.759946,68.9527928 162.759946,74.4244401 C162.759946,74.4554409 162.746256,74.4883793 162.746256,74.5193801 C166.782655,82.8372914 169.078552,92.135604 169.078552,101.966744 C169.078552,136.989936 140.317257,165.485515 104.965525,165.485515 M104.965525,0.0631269808 C46.9931434,0.0631269808 -0.000391123882,46.6244421 -0.000391123882,104.063175 C-0.000391123882,161.49997 46.9931434,208.063223 104.965525,208.063223 C162.939863,208.063223 209.937308,161.49997 209.937308,104.063175 C209.937308,46.6244421 162.939863,0.0631269808 104.965525,0.0631269808" id="Fill-63" fill="#B18865" mask="url(#mask-2)"></path>
                </g>
                <path d="M156.508808,91.3824775 C155.274812,88.2688313 153.898056,85.0059935 152.488055,81.6269026 C152.376584,81.3575828 152.247514,81.0863255 152.132132,80.8208809 C150.196069,81.2858934 148.048799,81.7179675 145.688366,82.1229159 C146.564484,84.2038469 147.43669,86.2363391 148.244361,88.3095199 C148.979674,90.4214517 149.775611,92.4946325 150.434654,94.5542504 C150.952894,96.6429316 151.629538,98.6715486 151.985461,100.700166 C152.278803,102.726845 152.781398,104.695398 152.871356,106.644576 C153.02585,108.589878 153.237057,110.477054 153.158832,112.309978 C153.15101,112.881556 153.141232,113.433758 153.141232,113.993711 C154.449541,95.7187192 150.145223,82.7506828 150.145223,82.7506828 C159.739492,108.781696 156.612456,126.783492 151.737097,137.831415 C157.768227,129.986266 161.804626,120.569763 163.185293,110.333675 C162.299397,107.506786 161.12407,104.083132 159.784471,100.200277 C158.830129,97.4528283 157.719337,94.4999989 156.508808,91.3824775" id="Fill-66" fill="#B18865"></path>
                <path d="M112.140693,157.690743 C112.381234,157.471799 112.60613,157.281919 112.850583,157.055226 C112.398835,156.396458 111.868862,155.586561 111.250886,154.610035 C110.546863,153.50563 109.711814,152.160969 108.818095,150.698117 C107.773795,151.537077 106.813586,152.30241 105.915956,152.957303 C106.16432,153.176246 106.414639,153.41069 106.663003,153.618008 C108.614711,155.233927 110.472549,156.578588 112.140693,157.690743" id="Fill-68" fill="#B18865"></path>
                <path d="M152.135261,122.428844 C151.757826,123.949822 151.35888,125.387486 150.911043,126.720522 C149.976257,129.384656 148.931956,131.651592 147.883744,133.459328 C146.864867,135.269002 145.8499,136.619476 145.110676,137.512687 C144.385141,138.409774 143.915793,138.849598 143.915793,138.849598 C143.915793,138.849598 144.338206,138.382648 144.946404,137.444873 C145.587847,136.514848 146.389651,135.098497 147.255991,133.275261 C148.134064,131.438461 148.963246,129.157963 149.649669,126.505454 C150.279378,123.847132 150.781972,120.824551 150.936466,117.509399 C150.969712,116.680127 151.001002,115.837292 151.036203,114.973143 C150.997091,114.110933 150.957978,113.233222 150.918866,112.343885 C150.901265,110.557462 150.602055,108.718725 150.347825,106.829612 C150.162041,104.934686 149.561666,103.022322 149.172498,101.055707 C148.697282,99.0987789 148.020638,97.1186006 147.445686,95.0996713 C146.757308,93.0923673 145.914436,91.0753755 145.145877,89.0293205 C144.25607,86.985203 143.358441,84.9120222 142.451034,82.8272161 C142.427566,82.7652144 142.398232,82.7051503 142.368898,82.6450862 C141.242461,82.8155908 140.080823,82.9744701 138.874206,83.121724 C138.960253,83.3484176 139.0287,83.5751112 139.114747,83.7998673 C139.642764,85.3537841 140.256829,86.9173887 140.722266,88.529432 C141.134902,90.1531007 141.551449,91.7903323 141.973863,93.4488769 C142.37672,95.1016088 142.789356,96.7717788 143.201992,98.4438863 C143.467956,100.139244 143.731964,101.842353 143.994017,103.545461 C144.213047,105.248569 144.533768,106.943927 144.664795,108.650911 C144.750842,110.357894 144.832978,112.059065 144.919025,113.748611 C145.245614,117.116076 144.76062,120.446728 144.655017,123.65919 C144.565058,125.263483 144.220869,126.8329 143.994017,128.369379 C143.722186,129.905858 143.550092,131.417148 143.098344,132.858687 C142.716998,134.304101 142.337608,135.710764 141.977774,137.070925 C141.533848,138.417524 140.998008,139.700184 140.544305,140.942155 C140.116024,142.186063 139.58214,143.352469 139.011099,144.441374 C138.434191,145.536091 138.003955,146.595932 137.389891,147.537582 C136.812983,148.483107 136.277143,149.372444 135.774549,150.190091 C135.211331,150.988362 134.68918,151.71882 134.225698,152.377587 C133.85022,152.889101 133.496252,153.323113 133.159886,153.731936 C137.691056,151.269307 141.860437,148.229288 145.568291,144.710693 C149.031693,136.813231 151.10465,129.111461 152.221308,121.967707 C152.195885,122.118836 152.166551,122.277715 152.135261,122.428844" id="Fill-70" fill="#B18865"></path>
                <path d="M134.901365,149.902752 C135.2964,149.061854 135.726636,148.15508 136.186207,147.190179 C136.680979,146.231091 136.978233,145.157687 137.420203,144.05522 C137.85435,142.95469 138.304143,141.792159 138.615086,140.556 C138.963186,139.317905 139.379733,138.042995 139.698499,136.709959 C139.974242,135.367236 140.248028,133.981886 140.541371,132.551973 C140.891427,131.135622 140.971608,129.64952 141.141746,128.140166 C141.259084,126.628876 141.571983,125.096272 141.59545,123.52298 C141.599361,121.525363 141.703009,119.485121 141.703009,117.421628 C141.650208,118.247025 141.499625,119.064672 141.405755,119.878444 C141.223883,120.895659 141.145658,121.926437 140.864049,122.912651 C140.26954,124.873454 139.874505,126.830381 139.084435,128.653618 C138.730468,129.57008 138.382367,130.474917 138.036223,131.368128 C137.63141,132.241964 137.222685,133.1003 136.825694,133.948948 C136.070825,135.644306 135.15364,137.233099 134.297079,138.761827 C132.587867,141.819284 130.700694,144.510544 128.977794,146.86467 C127.227514,149.203296 125.600439,151.197037 124.217816,152.820705 C121.42128,156.044792 119.582998,157.751776 119.582998,157.751776 C119.582998,157.751776 119.970211,157.286763 120.691834,156.414865 C121.401724,155.537154 122.377578,154.221556 123.636997,152.555261 C124.867082,150.875403 126.304462,148.815785 127.833756,146.413221 C129.318072,143.999031 130.929502,141.251582 132.486175,138.20575 C133.121751,136.92309 133.778839,135.586179 134.36357,134.200829 C134.070227,134.712343 133.821863,135.250983 133.516786,135.745059 C131.688282,138.912956 129.513633,141.827035 127.317473,144.510544 C125.146735,147.211492 122.790214,149.619869 120.594053,151.805428 C118.16713,154.155679 115.793008,156.143607 113.606625,157.83509 C113.978193,158.565547 114.173755,158.947245 114.183533,158.970496 C114.703728,159.288254 115.263035,159.629264 115.716739,159.892771 C121.612931,158.803866 127.207958,156.850814 132.351237,154.151804 C132.730627,153.587976 133.151086,152.923396 133.624345,152.146437 C134.011558,151.470232 134.437883,150.716524 134.901365,149.902752" id="Fill-72" fill="#B18865"></path>
                <path d="M56.5066451,99.0759158 L55.7302642,102.482132 C55.5933708,103.530348 55.4603887,104.582439 55.3586965,105.63453 C55.4506106,105.558965 55.5425247,105.483401 55.6383501,105.407836 C56.6239823,104.634753 57.6135257,103.881045 58.3644836,103.094399 C59.0978408,102.307753 59.4987428,101.486231 59.5554558,100.560081 C59.5847901,98.8259715 58.7301844,96.9446084 57.7973539,95.1407474 L57.5939695,95.7200755 C57.2380468,96.8438557 56.7452307,97.9366351 56.5066451,99.0759158" id="Fill-74" fill="#B18865"></path>
                <path d="M52.754007,110.867858 C52.5506226,111.071301 52.327682,111.261181 52.1360313,111.470437 C52.3922174,112.646531 52.6738266,113.81875 53.0532168,114.969656 L53.0082375,114.711961 L52.8752554,112.925538 C52.8185425,112.241582 52.7735632,111.553751 52.754007,110.867858" id="Fill-76" fill="#B18865"></path>
                <path d="M51.1764088,98.1753415 C51.0258261,99.1673682 51.0219149,100.169083 51.0453823,101.16886 L51.0610273,104.185628 C51.2174769,105.702732 51.3817489,107.23146 51.6222901,108.756314 C52.0271033,108.388179 52.398671,108.018106 52.8191292,107.669347 C52.9286438,105.853861 53.2239424,104.044187 53.5153297,102.240326 L54.4188258,98.7391692 C54.7063019,97.5727628 55.2440972,96.4489826 55.6430436,95.3038893 L56.2942648,93.5969059 L56.5954302,92.990452 C55.7799369,91.5876643 54.9233756,90.182939 54.109838,88.7491504 C53.8008501,88.2046983 53.5153297,87.6544335 53.2180755,87.1061062 C52.6665908,88.7859639 52.357603,90.5278233 51.9899465,92.2793704 C51.4873523,94.2091723 51.4286837,96.1893506 51.1764088,98.1753415" id="Fill-78" fill="#B18865"></path>
                <path d="M138.688617,98.8034959 C138.479366,97.0848872 138.270115,95.3895291 138.070642,93.7212967 C137.734275,92.0569394 137.407687,90.4255205 137.094788,88.8289776 C136.740821,87.2304971 136.255827,85.686268 135.860792,84.1730398 C135.80799,83.9424711 135.729765,83.7157775 135.671097,83.492959 C134.648308,83.6053371 133.605963,83.7080273 132.536239,83.8068425 C132.579262,85.2968201 132.618375,86.8294238 132.66531,88.4453423 C132.686822,88.8774164 132.68291,89.3191783 132.686822,89.7628777 C133.005587,90.3189552 133.328265,90.8750326 133.623563,91.4349852 C135.499002,94.9516423 137.221903,98.4896125 138.8216,102.035333 C138.770754,100.948366 138.714041,99.8749623 138.688617,98.8034959" id="Fill-80" fill="#B18865"></path>
                <path d="M57.6162636,90.9587349 C58.0015206,90.1720887 58.3828664,89.3873801 58.8502594,88.6239846 C60.2035481,86.4926772 61.4923012,84.3361817 63.1663115,82.3385655 C63.2738705,82.2087495 63.3677403,82.0769959 63.4752993,81.9529926 C60.5125359,81.4182282 57.8959171,80.835025 55.6762891,80.203383 C55.0680915,81.687548 54.47945,83.1969011 53.9670777,84.7566305 C54.5948316,85.8959112 55.1971624,87.0448796 55.8640286,88.1628472 C56.4252913,89.1006224 57.0197996,90.0248348 57.6162636,90.9587349" id="Fill-82" fill="#B18865"></path>
                <path d="M53.0766842,79.3826359 C52.4782647,79.1714428 51.9150463,78.9505618 51.4104965,78.7277433 C51.3127155,78.9428116 51.2266683,79.1598175 51.1367098,79.3710106 C51.4711207,80.053029 51.7977091,80.7331098 52.147765,81.4073779 C52.4450192,80.7176094 52.7637851,80.0569041 53.0766842,79.3826359" id="Fill-84" fill="#B18865"></path>
                <path d="M62.2246807,136.718291 C61.3074952,135.447257 60.4626676,134.141347 59.658908,132.819936 C56.9464639,129.746978 54.6681673,126.331074 52.7086367,122.754353 C51.7875399,120.79355 50.7686622,118.834685 50.1369971,116.778942 C49.9746807,116.373994 49.8319205,115.961295 49.6950271,115.544721 C49.5542225,116.06011 49.4427522,116.577437 49.3312819,117.096701 C49.1513649,118.319296 49.1044301,119.570955 49.1396312,120.832301 C52.1180396,129.781854 57.218295,137.774257 63.867401,144.226305 C64.3171935,144.059676 64.7748084,143.900797 65.2246009,143.734167 C65.0349058,142.565823 64.8608557,141.360666 64.8471663,140.120633 C63.9397589,139.000727 63.0636414,137.869197 62.2246807,136.718291" id="Fill-86" fill="#B18865"></path>
                <path d="M68.70267,107.806332 C68.5618654,106.296979 68.1668303,104.816689 68.2528776,103.340274 C68.2587444,100.401008 68.2685225,97.5624938 68.2724337,94.8634837 C68.522753,92.1838491 68.9569005,89.6611562 69.283489,87.3341561 C69.3988705,86.5533226 69.5025184,85.8306157 69.6100774,85.1040336 C69.545542,84.7901502 69.4986071,84.4723916 69.4242936,84.1623833 C69.3265126,83.7109336 69.201353,83.276922 69.0722821,82.8370976 C67.654458,82.6414049 66.2972581,82.4321492 64.9889488,82.2132058 C64.8266323,82.4437746 64.6623603,82.666593 64.494177,82.8952242 C62.937504,84.9044658 61.7993335,87.0570862 60.5262253,89.1612678 C59.9082495,90.2211088 59.4760576,91.3293886 58.9441292,92.4163553 L58.7505228,92.8251788 C58.9988865,93.2340023 59.2628951,93.6350756 59.5034363,94.0535869 C60.6024944,96.0860791 61.7993335,98.1418219 61.8540908,100.608326 C61.8364903,101.846422 61.2458932,103.125206 60.3365302,104.117233 C59.4389009,105.101509 58.4161119,105.895905 57.4422134,106.698052 C56.6756106,107.318069 55.944209,107.941961 55.2167186,108.56779 C55.2167186,108.827422 55.2049848,109.092867 55.2167186,109.358311 C55.1639168,110.505342 55.2988546,111.650435 55.4240142,112.793591 L55.6039312,114.508325 L55.944209,116.207558 C56.3568447,118.482244 57.0628233,120.722054 57.8920059,122.921176 C58.9988865,125.808129 60.4284443,128.623392 62.0907208,131.359216 C62.3351732,131.659536 62.5678919,131.969544 62.8221224,132.264052 C63.5241898,133.077824 64.2360353,133.876096 64.9576588,134.666617 C64.9713482,134.48255 64.9889488,134.304295 65.0045937,134.12604 C65.0828185,132.176863 65.4993654,130.278061 65.8474657,128.321134 L66.1153855,126.836969 L66.4458852,125.319866 C66.6746927,124.327839 66.9015445,123.326124 67.1283964,122.318597 C67.9458453,118.780627 68.5911997,115.112841 69.2072198,111.398554 C69.0390366,110.197271 68.8708533,108.990176 68.70267,107.806332" id="Fill-88" fill="#B18865"></path>
                <path d="M57.1846584,146.636814 L58.3541188,146.191177 C57.3547973,145.139086 56.3769875,144.06762 55.4500239,142.947715 C56.015198,144.183873 56.5745051,145.421969 57.1846584,146.636814" id="Fill-90" fill="#B18865"></path>
                <path d="M67.186569,142.992149 C67.2194461,142.982406 67.2506793,142.969415 67.2852002,142.954801 C67.2473916,142.915828 67.2079391,142.871984 67.1684866,142.833012 C67.1717743,142.884975 67.1816374,142.94181 67.186569,142.992149" id="Fill-92" fill="#B18865"></path>
                <path d="M47.8113745,98.0164623 C48.0714719,95.9549068 48.1888091,93.8914138 48.769628,91.909298 C49.2546216,89.9097442 49.6477011,87.9237532 50.3967034,86.038515 C50.6724457,85.1453035 50.9853448,84.2675924 51.3178001,83.4015066 C50.9736111,82.6943 50.6509339,81.9793433 50.3282567,81.2663241 C47.6686143,87.8888773 46.1882104,95.0946337 46.1882104,102.649149 C46.1882104,106.568817 46.5871568,110.391608 47.336159,114.100082 C47.4241619,113.886952 47.4808748,113.664133 47.5962564,113.456815 C47.8113745,112.910425 48.2474777,112.325285 48.5955779,111.776957 L48.6562021,111.70333 C48.5721105,111.329383 48.4860632,110.95931 48.3980603,110.5873 C48.1047174,109.55071 48.0832056,108.483119 47.9365342,107.434903 C47.8426644,106.382812 47.6686143,105.334597 47.6314575,104.282506 L47.6431913,101.133984 C47.6275463,100.089643 47.6451469,99.0491775 47.8113745,98.0164623" id="Fill-94" fill="#B18865"></path>
            </g>
        </g>
    </g>
</svg>