<?xml version="1.0" encoding="UTF-8" standalone="no"?>
<svg width="116px" height="117px" viewBox="0 0 116 117" version="1.1" xmlns="http://www.w3.org/2000/svg" xmlns:xlink="http://www.w3.org/1999/xlink">
    <!-- Generator: Sketch 40.2 (33826) - http://www.bohemiancoding.com/sketch -->
    <title>cotton-icon</title>
    <desc>Created with Sketch.</desc>
    <defs>
        <polygon id="path-1" points="115.48437 116.040984 0 116.040984 0 0.556421311 115.48437 0.556421311 115.48437 116.040984"></polygon>
    </defs>
    <g id="Rug-builder" stroke="none" stroke-width="1" fill="none" fill-rule="evenodd">
        <g id="rug-builder-master" transform="translate(-3849.000000, -686.000000)">
            <g id="cotton-icon" transform="translate(3849.000000, 686.000000)">
                <g id="Group-3" transform="translate(0.000000, 0.402787)">
                    <mask id="mask-2" fill="white">
                        <use xlink:href="#path-1"></use>
                    </mask>
                    <g id="Clip-2"></g>
                    <path d="M115.48437,58.2987984 C115.48437,90.1889705 89.6321656,116.041175 57.7419934,116.041175 C25.8518213,116.041175 -0.000383606558,90.1889705 -0.000383606558,58.2987984 C-0.000383606558,26.4086262 25.8518213,0.556421311 57.7419934,0.556421311 C89.6321656,0.556421311 115.48437,26.4086262 115.48437,58.2987984" id="Fill-1" fill="#515151" mask="url(#mask-2)"></path>
                </g>
                <path d="M74.1270762,104.247959 C74.1270762,104.247959 73.2399861,103.890246 71.7832402,103.064533 C70.3293713,102.239779 68.2962566,100.950861 66.0770926,99.101877 C64.9607975,98.1860164 63.7898385,97.1387705 62.6409369,95.938082 C61.4680598,94.7594508 60.3210762,93.423541 59.2105352,91.9783033 C58.146027,90.5033361 57.0239779,88.9746639 56.1225025,87.2733689 C55.1749943,85.6008443 54.3588713,83.8180328 53.6348139,81.9987787 C52.9778877,80.1555492 52.3890516,78.2806721 52.0111992,76.3904508 C51.9133795,75.9186148 51.8011746,75.4525328 51.7167811,74.9826148 C51.6544451,74.5098197 51.59115,74.0389426 51.529773,73.5709426 C51.3820844,72.6387787 51.3322156,71.7085328 51.2727566,70.7955492 C51.1921992,69.8844836 51.1921992,68.9858852 51.2113795,68.1074262 C51.2027484,67.2289672 51.2689205,66.3735246 51.3427648,65.5430164 C51.4242811,63.8772049 51.7388385,62.3283934 51.9805107,60.9071311 C52.3113713,59.497377 52.5674287,58.2027049 52.9567893,57.095041 C53.3097074,55.9806639 53.5983713,55.0091803 53.9349861,54.2390902 C54.5641008,52.6883607 54.9467484,51.8214098 54.9467484,51.8214098 C54.9467484,51.8214098 54.7933057,52.768918 54.4864205,54.3925328 C54.3022893,55.1961885 54.2169369,56.2041148 54.0318467,57.33 C53.8304533,58.4549262 53.7853795,59.7495984 53.6175516,61.1325 C53.5628877,61.8277869 53.5561746,62.5566393 53.52165,63.3046721 C53.4717811,64.0527049 53.4736992,64.8256721 53.4890434,65.6197377 C53.4890434,66.4138033 53.4986336,67.2270492 53.581109,68.0546803 C53.6520762,68.8823115 53.6635844,69.7281639 53.7968877,70.5797705 C53.8995025,71.4332951 53.990609,72.3012049 54.1776172,73.1652787 C54.3329779,74.0341475 54.5017648,74.9087705 54.7213795,75.7805164 C55.102109,77.5374344 55.689027,79.2713361 56.3229369,80.9793443 C56.9693139,82.6844754 57.6991254,84.3637131 58.5603221,85.9470492 C59.3917893,87.5447705 60.3172402,89.0648115 61.2647484,90.5071721 C62.2630844,91.9121311 63.2153877,93.2921557 64.2376992,94.5139426 C65.2475434,95.7434016 66.2382074,96.8855902 67.2001008,97.9002295 C69.1210107,99.9343033 70.8568303,101.523393 72.1102648,102.598451 C72.7412975,103.129746 73.235191,103.557467 73.586191,103.830787 C73.939109,104.103148 74.1270762,104.247959 74.1270762,104.247959" id="Fill-4" fill="#FEFEFE"></path>
                <path d="M72.2090434,37.7560918 C72.009568,37.0445016 71.8695516,36.3098951 71.6211664,35.6174852 L71.2740025,34.5788705 C71.1589205,34.2345836 71.0035598,33.8998869 70.8712156,33.5613541 C70.6189943,32.8775754 70.2612811,32.2379115 69.961109,31.5800262 C69.608191,30.9461164 69.2850025,30.2997393 68.8831746,29.696518 C68.5120352,29.0779525 68.0833549,28.4958295 67.6690598,27.9098705 C67.2394205,27.3335016 66.7973139,26.767682 66.3293139,26.2248787 C65.8593959,25.6839934 65.3712566,25.1622885 64.8639369,24.6636 C64.6059615,24.4180918 64.3518221,24.1706656 64.0861746,23.9395426 C63.8281992,23.7093787 63.5491254,23.4657885 63.3093713,23.2797393 L63.3908877,23.3391984 C60.8504533,21.7779197 58.1182156,20.570518 55.3188467,19.9836 C52.5175598,19.4033951 49.6510598,19.6143787 47.0713057,20.6616246 C44.4762074,21.6944852 42.2426582,23.5703213 40.3370926,25.7386574 C39.3886254,26.8338541 38.5274287,28.0191984 37.7582975,29.2668787 C37.3718139,29.8892803 37.0121828,30.5299033 36.670773,31.1772393 C36.3293631,31.8130672 35.9889123,32.5026 35.7318959,33.1115754 L35.4115844,33.8701574 L34.6472484,33.9612639 C34.0632074,34.0312721 33.3516172,34.1799197 32.7052402,34.3410344 C32.0444779,34.5050262 31.3904287,34.7064197 30.7478877,34.9365836 C30.1015107,35.1590754 29.4743139,35.428559 28.8547893,35.7143459 C28.2391008,36.0049279 27.6349205,36.3185262 27.0470434,36.6608951 C26.4658795,37.0128541 25.9019779,37.3907066 25.3610926,37.8002066 C24.8250025,38.2145016 24.3167238,38.6614033 23.8305025,39.1322803 L23.1332975,39.8697639 L22.4917156,40.6571164 C22.0889287,41.2008787 21.6918959,41.7542311 21.3600762,42.3497803 C21.174027,42.6374852 21.0301746,42.9472475 20.880568,43.2541328 C20.7261664,43.560059 20.5727238,43.8679033 20.4586008,44.1920508 C20.1852811,44.8240426 19.9858057,45.4857639 19.7920844,46.1522803 C19.6386418,46.8274279 19.4439615,47.5016164 19.355732,48.1978623 L19.2032484,49.2412721 L19.126527,50.2971492 C19.0498057,51.0029852 19.0977566,51.7126574 19.0766582,52.4261656 C19.0795352,53.1396738 19.1476254,53.852223 19.180232,54.5695672 L19.4247811,56.7139279 L19.7824943,58.8544525 L19.122691,56.778182 C18.9356828,56.076182 18.7621008,55.3674689 18.59715,54.6549197 C18.478232,53.9356574 18.3238303,53.2163951 18.2336828,52.4875426 C18.1607975,51.7567721 18.0572238,51.0240836 18.0581828,50.283723 L18.0313303,49.1712639 L18.0840762,48.0559279 C18.1118877,47.3107721 18.2298467,46.5665754 18.3487648,45.8252557 C18.5022074,45.0877721 18.6661992,44.3493295 18.9117074,43.6291082 C19.0124041,43.2627639 19.1543385,42.9098459 19.298191,42.5569279 C19.4391664,42.2020918 19.5753467,41.8443787 19.7556418,41.5068049 C20.0797893,40.812477 20.472027,40.1526738 20.8882402,39.5053377 L21.5662648,38.5722148 L22.3114205,37.6899197 C22.8331254,37.1241 23.3826418,36.5851328 23.9647648,36.0816492 C24.5507238,35.5848787 25.1644943,35.1226328 25.7984041,34.6891574 C26.4399861,34.2710262 27.0930762,33.8682393 27.7758959,33.5229934 C28.4577566,33.1787066 29.1511254,32.855518 29.8627156,32.5812393 C30.5723877,32.3012066 31.293568,32.0528213 32.0300926,31.8437557 C32.7810025,31.6327721 33.4791664,31.452477 34.3278959,31.3210918 L33.2442074,32.1707803 C33.5510926,31.3536984 33.8694861,30.6564934 34.2233631,29.9247639 C34.5829943,29.2083787 34.9704369,28.5082967 35.3828139,27.821641 C36.20565,26.4473705 37.1349369,25.129682 38.1793057,23.8925508 C40.2498221,21.4173295 42.9034205,19.280641 46.0413221,18.0607721 C47.6026008,17.4585098 49.2674533,17.0672311 50.9428549,17.0087311 C52.6163385,16.9300918 54.283109,17.1218951 55.8731582,17.5122148 C57.4689615,17.8910262 58.9890025,18.4789033 60.4208139,19.1981656 C61.8555025,19.9126328 63.2125107,20.745059 64.5014287,21.6522885 L64.5704779,21.7011984 L64.5829451,21.7117475 C64.9061336,22.0032885 65.1727402,22.2574279 65.4393467,22.5460918 C65.7078713,22.8251656 65.9591336,23.1157475 66.2123139,23.4034525 C66.7090844,23.9865344 67.1790025,24.5878377 67.6259041,25.2035262 C68.0708877,25.8220918 68.4842238,26.4588787 68.8831746,27.1042967 C69.25815,27.765059 69.6302484,28.4248623 69.9467238,29.1134361 C70.2919697,29.7857066 70.5556992,30.4972967 70.8443631,31.1906656 C71.0860352,31.9060918 71.3440107,32.6119279 71.5127975,33.3455754 C71.716109,34.0657967 71.8637975,34.8051984 71.9760025,35.545559 C72.1093057,36.2792066 72.127527,37.0195672 72.2090434,37.7560918" id="Fill-6" fill="#FEFEFE"></path>
                <path d="M64.9092984,67.4072484 C68.7261836,65.283027 72.8115934,63.4599369 77.287323,62.7119041 C77.8445115,62.6140844 78.4093721,62.5479123 78.9771098,62.4922893 C79.4230525,62.4280352 80.0809377,62.3887156 80.504823,62.2841828 C81.4130115,62.124027 82.4017574,61.8209779 83.2907656,61.4258631 C85.1061836,60.6471418 86.7307574,59.4205598 88.1539377,57.9829943 C89.574241,56.5348795 90.7989049,54.865232 91.8730033,53.0987238 C92.4062164,52.2125926 92.8962738,51.296732 93.3450934,50.360732 C93.786241,49.4362402 94.2101262,48.4417402 94.5227656,47.5373877 L96.6038311,41.528191 L97.2808967,47.8126254 C97.4381754,49.2674533 97.4650279,50.5918549 97.4487246,51.9757156 C97.415159,53.344232 97.3154213,54.7098713 97.1466344,56.0678385 C96.8148148,58.784732 96.2048803,61.478609 95.2803885,64.0785025 C94.3578148,66.6783959 93.0468393,69.1574533 91.4040443,71.3967566 C89.753577,73.6283877 87.759782,75.6279369 85.4677328,77.1844205 C83.1910279,78.7629615 80.6793639,79.9511828 78.0861836,80.7941582 C75.4834131,81.6169943 72.8058393,82.1032156 70.1273066,82.3352975 C68.7885197,82.4638057 67.4449377,82.4868221 66.1080689,82.4983303 C64.770241,82.4849041 63.4362492,82.4427074 62.1080115,82.3362566 C60.7807328,82.2250107 59.4592082,82.0754041 58.1443967,81.893191 C56.8305443,81.6975516 55.525323,81.4568385 54.2268148,81.2036582 C56.8669869,81.4117648 59.507159,81.5249287 62.135823,81.4932811 C63.4506344,81.4702648 64.7606508,81.423273 66.0649131,81.3273713 C67.3682164,81.2161254 68.6667246,81.074191 69.9508475,80.8680025 C72.5219705,80.4834369 75.0432246,79.8524041 77.4350115,78.9317484 C79.8315934,78.031232 82.0948721,76.8257484 84.1001754,75.2961172 C86.1054787,73.7703221 87.8748639,71.9558631 89.3028393,69.8901418 C90.743282,67.8320926 91.8308066,65.5390844 92.6689869,63.1559287 C93.4947,60.7660598 94.0384623,58.2668631 94.3252082,55.7331418 C94.4709787,54.4672402 94.5227656,54.9086928 94.5227656,54.2924805 C94.5227656,53.6762681 94.2513639,54.5449205 94.2513639,54.5449205 C94.1190186,54.9536133 91.6946262,58.2927566 90.0307328,59.8828057 C88.3745115,61.4680598 86.4488066,62.8538385 84.2574541,63.7284615 C83.1545852,64.16865 82.0584295,64.5023877 80.8260934,64.6606254 C80.1873885,64.7641992 79.7596672,64.7594041 79.1315115,64.81215 C78.6203557,64.8361254 78.1092,64.867773 77.5961262,64.932027 C75.5438311,65.1545189 73.4992082,65.6752648 71.4862328,66.3149287 C69.4694213,66.9526746 67.4948066,67.7649615 65.5527984,68.6616418 C63.6050361,69.549691 61.7033066,70.5518631 59.8274705,71.6096582 C57.9564295,72.6770434 56.1026508,73.7914205 54.3073721,75.0045762 C57.5373393,72.1045107 61.1173475,69.5918877 64.9092984,67.4072484 Z" id="Fill-8" fill="#FEFEFE"></path>
                <path d="M54.3073721,78.0347803 C54.3073721,78.0347803 53.9688393,78.3502967 53.307118,78.8048705 C52.6463557,79.2584852 51.6624049,79.8578705 50.3936262,80.4093049 C49.1315607,80.9760836 47.5779541,81.4853213 45.8363803,81.7806984 C44.9636754,81.9130426 44.0487738,82.0223705 43.1060607,82.0118213 C42.1643066,82.0252475 41.1995361,81.936059 40.2424377,81.7643951 C39.2872574,81.586977 38.3426262,81.3069443 37.4517,80.9329279 C36.5578967,80.5665836 35.7283475,80.0861164 34.9831918,79.5529033 C34.2418721,79.012018 33.5907,78.4135918 33.0373475,77.7998213 C32.7755361,77.4785508 32.5012574,77.1870098 32.2797246,76.8714934 C32.067782,76.551182 31.8625525,76.2423787 31.6659541,75.9460426 C31.312077,75.3332311 31.0023148,74.7702885 30.7999623,74.2389934 C30.5908967,73.7124934 30.4019705,73.2636738 30.3089459,72.8676 C30.0960443,72.0879197 30.0126098,71.641018 30.0126098,71.641018 C30.0126098,71.641018 30.3281262,71.988182 30.8143475,72.5981164 C31.0406754,72.9126738 31.3974295,73.2406574 31.7302082,73.6501574 C32.0735361,74.0548623 32.5233148,74.4557311 32.9567902,74.9151 C33.4315033,75.3437803 33.943618,75.7887639 34.5113557,76.2126492 C35.0762164,76.6374934 35.6967,77.0345262 36.3536262,77.3999115 C36.6844869,77.5802066 37.0354869,77.7326902 37.3759377,77.9091492 C37.7394049,78.0405344 38.0894459,78.2064443 38.4615443,78.3320754 C39.205741,78.5785426 39.9719951,78.8048705 40.7679787,78.9362557 C42.3465197,79.2508131 44.001782,79.2930098 45.5716918,79.2508131 C47.1444787,79.187518 48.6367082,79.0101 49.9323393,78.8307639 C51.2202984,78.6264934 52.3145361,78.4327721 53.0855852,78.2802885 C53.8633475,78.1239689 54.3073721,78.0347803 54.3073721,78.0347803" id="Fill-10" fill="#FEFEFE"></path>
                <path d="M62.0703221,20.7345098 C62.0703221,20.7345098 62.8576746,20.4094033 64.3067484,20.040182 C65.0317648,19.867559 65.9198139,19.6584934 66.9555516,19.5203951 C67.9903303,19.3727066 69.1708795,19.2365262 70.4693877,19.2317311 C71.7678959,19.1981656 73.1872402,19.2595426 74.6775516,19.4945016 C76.1707402,19.7006902 77.742568,20.0833377 79.3019287,20.6923131 C80.8699205,21.2753951 82.4292811,22.1087803 83.8562975,23.1742475 C85.3159205,24.2109443 86.5530516,25.5650754 87.684691,26.9719525 C88.1805025,27.7247803 88.7328959,28.4478787 89.1251336,29.2524934 L89.7580844,30.4301656 L90.2740352,31.6461984 C90.6499697,32.443141 90.8878057,33.2746082 91.1246828,34.0936082 C91.3980025,34.9049361 91.5332238,35.7306492 91.7077648,36.5333459 C91.8938139,37.3341246 92.0021828,38.1291492 92.0769861,38.9107475 C92.1671336,39.6913869 92.251527,40.4518869 92.2572811,41.1941656 C92.2802975,41.9364443 92.3205762,42.6557066 92.3253713,43.3509934 C92.2918057,44.0443623 92.2601582,44.7147148 92.2285107,45.3572557 C92.2074123,46.6423377 92.0088959,47.8056246 91.8861418,48.8356082 C91.781609,49.8665508 91.5898057,50.753641 91.4392402,51.4815344 C91.13715,52.9382803 90.9386336,53.7601574 90.9386336,53.7601574 C90.9386336,53.7601574 90.8964369,52.9066328 90.8686254,51.4326246 C90.8628713,50.6961 90.8494451,49.8032557 90.787109,48.7828623 C90.7218959,47.7643869 90.7123057,46.6174033 90.5770844,45.3783541 C90.5214615,44.7597885 90.4629615,44.1153295 90.4025434,43.4488131 C90.3114369,42.7899689 90.2174533,42.1081082 90.1205926,41.4080262 C90.0457893,40.7050672 89.8923467,39.9992311 89.735068,39.2809279 C89.5787484,38.5626246 89.4655844,37.8213049 89.2373385,37.0982066 C89.032109,36.3703131 88.8652402,35.6165262 88.5708221,34.903018 C88.3013385,34.1799197 88.0596664,33.437641 87.7192156,32.737559 L87.2425844,31.6663377 L86.6652566,30.6478623 C86.3123385,29.9449033 85.812691,29.342641 85.3820926,28.6933869 C84.4297893,27.472559 83.4055598,26.2862557 82.1703467,25.3790262 C80.9543139,24.4602885 79.6912893,23.6038869 78.324691,23.0217639 C76.9724779,22.4262148 75.6106746,21.9141 74.2603795,21.5937885 C72.9158385,21.2610098 71.6106172,21.0155016 70.3878713,20.8745262 C67.9423795,20.5753131 65.8517238,20.5733951 64.3844287,20.6040836 C63.6536582,20.6366902 63.0705762,20.6472393 62.6764205,20.6817639 C62.2813057,20.7162885 62.0703221,20.7345098 62.0703221,20.7345098" id="Fill-12" fill="#FEFEFE"></path>
                <path d="M24.8976,51.8216016 C24.8976,51.8216016 24.4497393,52.5082574 23.7966492,53.7559377 C23.4705836,54.3792984 23.0994443,55.1465115 22.7206328,56.0374377 C22.5173213,56.4766672 22.3418213,56.9600115 22.1624852,57.4692492 C21.9658869,57.9717738 21.7903869,58.5078639 21.6273541,59.0717656 C21.4374689,59.6270361 21.3099197,60.2235443 21.1814115,60.8373148 C21.0241328,61.4434131 20.9368623,62.081159 20.8467148,62.7342492 C20.6616246,64.0385115 20.6520344,65.4204541 20.7527311,66.8225361 C20.8563049,68.2284541 21.1996328,69.6401262 21.6551656,71.0345361 C22.1423459,72.4164787 22.7676246,73.7888311 23.6182721,75.0403475 L24.1553213,75.9331918 L24.9062311,76.881659 L25.6494689,77.8301262 C25.8921,78.1629049 26.1558295,78.3374459 26.4042148,78.6011754 C26.9115344,79.0806836 27.3709033,79.6043066 27.9731656,79.9955852 C28.2570344,80.2084869 28.5389852,80.4204295 28.819018,80.6304541 C29.0990508,80.8423967 29.4251164,80.9622738 29.7214525,81.1339377 C30.0254607,81.2940934 30.3265918,81.4532902 30.6248459,81.6105689 C30.9441984,81.7151016 31.2587557,81.8263475 31.568518,81.9443066 C32.1794115,82.2176262 32.8277066,82.3125689 33.4520262,82.4506672 C34.0744279,82.6204131 34.7112148,82.5715033 35.3173131,82.6597328 C35.9282066,82.6913803 36.5256738,82.6511016 37.1030016,82.6482246 C37.6745754,82.5753393 38.2308049,82.5225934 38.7573049,82.4420361 C39.2790098,82.3355852 39.7872885,82.2674951 40.2514525,82.143782 C41.1826574,81.9069049 41.9978213,81.6661918 42.6585836,81.4293148 C43.9820262,80.9584377 44.7175918,80.5920934 44.7175918,80.5920934 C44.7175918,80.5920934 44.1277967,81.1655852 42.9108049,81.9433475 C42.3018295,82.3288721 41.5394115,82.7719377 40.6101246,83.1852738 C40.1497967,83.4029705 39.6348049,83.5746344 39.0996738,83.7894541 C38.5559115,83.9774213 37.9622803,84.1088066 37.3475508,84.2823885 C36.7184361,84.3811672 36.0605508,84.5192656 35.366223,84.5844787 C35.017141,84.5959869 34.6613459,84.6084541 34.2997967,84.6199623 C33.9372885,84.6391426 33.5690262,84.6381836 33.1959689,84.5835197 C32.4498541,84.5029623 31.6692148,84.4588475 30.9058377,84.2200525 C30.5183951,84.1241508 30.1271164,84.019618 29.7348787,83.9064541 C29.3627803,83.7424623 28.9858869,83.5765525 28.6070754,83.4096836 C28.234977,83.2274705 27.8283541,83.0912902 27.4773541,82.8630443 C27.1244361,82.6347984 26.7696,82.4046344 26.4128459,82.1725525 C25.6705672,81.7534623 25.0328213,81.1310607 24.3806902,80.5220852 C24.0728459,80.2190361 23.6834852,79.9111918 23.4437311,79.6023885 L22.6822721,78.6683066 L21.9227311,77.7275115 L21.8747803,77.6690115 L21.795182,77.5616016 L21.7740836,77.527077 L21.6887311,77.3899377 L21.5189852,77.1147 L21.1794934,76.5642246 C20.2473295,75.1180279 19.5443705,73.5107164 19.0140344,71.8899787 C18.4932885,70.2548557 18.2669607,68.5650689 18.229559,66.9462492 C18.1864033,65.3226344 18.3935508,63.7623148 18.7435918,62.3429705 C18.9229279,61.6323393 19.0754115,60.9389705 19.3401,60.3060197 C19.575059,59.6634787 19.805223,59.0477902 20.0910098,58.4858066 C20.3556984,57.9151918 20.6060016,57.3704705 20.9090508,56.8852082 C21.1929197,56.3913148 21.4662393,55.9281098 21.7587393,55.5147738 C22.3034607,54.6650852 22.8625672,53.9851426 23.3267311,53.4365852 C24.2617721,52.3413885 24.8976,51.8216016 24.8976,51.8216016" id="Fill-14" fill="#FEFEFE"></path>
                <path d="M63.2582557,42.2314377 C63.2582557,42.2314377 63.7118705,41.896741 64.5874525,41.4440852 C65.4620754,41.0000607 66.7548295,40.4093066 68.4062557,39.9767902 C69.2271738,39.7427902 70.1391984,39.556741 71.1193131,39.4301508 C72.0994279,39.3169869 73.1495508,39.2220443 74.2437885,39.2699951 C75.3351492,39.3160279 76.4754197,39.4301508 77.607059,39.7092246 C78.7473295,39.9528148 79.8722557,40.3671098 80.9549852,40.8648393 C82.0252475,41.3903803 83.0590672,42.0041508 83.9682148,42.7435525 C84.8984607,43.4561016 85.6992393,44.2846918 86.4165836,45.1190361 C86.7666246,45.5419623 87.0831,45.9792738 87.3890262,46.4060361 C87.6911164,46.8366344 87.9337475,47.2883311 88.195559,47.7093393 C88.6942475,48.564782 89.0931984,49.4115934 89.3962475,50.2085361 C89.713682,51.0016426 89.9668623,51.7362492 90.127018,52.4075607 C90.3169033,53.0673639 90.4521246,53.6466098 90.5240508,54.1357082 C90.6909197,55.1043148 90.7503787,55.6576672 90.7503787,55.6576672 C90.7503787,55.6576672 90.4492475,55.175282 89.9860426,54.3303885 C89.7693049,53.9017082 89.4480344,53.4097328 89.1142967,52.839118 C88.7911082,52.2617902 88.367223,51.6489787 87.9337475,50.9767082 C87.7266,50.6343393 87.4705426,50.3053967 87.2106492,49.9659049 C86.9469197,49.6283311 86.7215508,49.2495197 86.4185016,48.914823 C85.8593951,48.2099459 85.213018,47.5280852 84.5388295,46.8471836 C83.8425836,46.1883393 83.1012639,45.5438803 82.2918541,44.9751836 C81.4901164,44.3968967 80.6231656,43.8914951 79.7197721,43.4618557 C77.9187393,42.5929869 75.9460426,42.070323 74.035682,41.8056344 C73.0785836,41.6771262 72.1368295,41.5984869 71.2343951,41.5668393 C70.3338787,41.5658803 69.4698049,41.5505361 68.6690262,41.5994459 C67.0674689,41.6809623 65.7162148,41.8526262 64.7619934,41.9859295 C63.8106492,42.1259459 63.2582557,42.2314377 63.2582557,42.2314377" id="Fill-16" fill="#FEFEFE"></path>
                <path d="M33.8483877,84.428159 C33.8483877,84.428159 34.2003467,84.6612 34.8131582,85.0227492 C35.4269287,85.3842984 36.2948385,85.8810689 37.3497566,86.3903066 C37.8666664,86.6626672 38.4612566,86.885159 39.0577648,87.1536836 C39.6724943,87.3896016 40.3102402,87.646618 40.9834697,87.8537656 C41.3239205,87.9487082 41.6643713,88.056118 42.0067402,88.1644869 C42.350068,88.2747738 42.7154533,88.3188885 43.0674123,88.4128721 C43.7751664,88.6056344 44.513609,88.6813967 45.2453385,88.7897656 C45.97515,88.9192328 46.7231828,88.8770361 47.4520352,88.9614295 C48.1847238,88.9508803 48.9097402,88.9163557 49.6194123,88.9201918 C50.3223713,88.8434705 51.008068,88.7619541 51.6697893,88.7072902 C52.3305516,88.6468721 52.9424041,88.4847984 53.5293221,88.406159 C54.108568,88.2997082 54.6628795,88.2440852 55.1280025,88.1059869 C55.5969615,87.9822738 56.0227648,87.9007574 56.3737648,87.8269131 C57.0776828,87.6821016 57.5044451,87.6245607 57.5044451,87.6245607 C57.5044451,87.6245607 57.1975598,87.9026754 56.6183139,88.343823 C56.327732,88.5634377 55.9748139,88.8377164 55.5499697,89.1225443 C55.1404697,89.4390197 54.630273,89.7008311 54.0606172,89.9703148 C53.4890434,90.2340443 52.8858221,90.5927164 52.1895762,90.8104131 C51.4923713,91.0242738 50.7500926,91.2563557 49.9675352,91.448159 C49.1705926,91.5603639 48.3400844,91.6975033 47.4894369,91.7521672 C46.6368713,91.7339459 45.7603303,91.7742246 44.8981746,91.6447574 C44.0379369,91.504741 43.170027,91.3954131 42.3586992,91.1077082 C41.528191,90.8938475 40.7561828,90.5524377 40.0225352,90.2100689 C39.2908057,89.8677 38.6281254,89.4447738 38.0153139,89.0429459 C37.4178467,88.6104295 36.8702484,88.1894213 36.4127975,87.7415607 C35.9294533,87.3311016 35.5525598,86.8784459 35.213068,86.4957984 C34.8822074,86.1026016 34.6194369,85.7410525 34.4180434,85.4322492 C34.0075844,84.8213557 33.8483877,84.428159 33.8483877,84.428159" id="Fill-18" fill="#FEFEFE"></path>
            </g>
        </g>
    </g>
</svg>