<?xml version="1.0" encoding="UTF-8" standalone="no"?>
<svg width="211px" height="210px" viewBox="0 0 211 210" version="1.1" xmlns="http://www.w3.org/2000/svg" xmlns:xlink="http://www.w3.org/1999/xlink">
    <!-- Generator: Sketch 40.2 (33826) - http://www.bohemiancoding.com/sketch -->
    <title>jute</title>
    <desc>Created with Sketch.</desc>
    <defs>
        <polygon id="path-1" points="209.796085 104.897253 209.796085 209.79411 0 209.79411 0 104.897253 0 0.000394992065 209.796085 0.000394992065"></polygon>
    </defs>
    <g id="Materials---Home" stroke="none" stroke-width="1" fill="none" fill-rule="evenodd">
        <g id="Materials" transform="translate(-290.000000, -2208.000000)">
            <g id="jute" transform="translate(290.854545, 2208.000000)">
                <mask id="mask-2" fill="white">
                    <use xlink:href="#path-1"></use>
                </mask>
                <g id="Clip-2"></g>
                <path d="M151.252336,42.4798166 C147.466338,42.4798166 144.399224,41.2316417 144.399224,39.7010474 L144.399224,110.355253 L144.399224,140.483273 L144.399224,171.314378 L138.561241,171.314378 L138.561241,140.483273 L138.561241,110.355253 L138.561241,61.2458896 C137.423664,62.1385717 135.150485,62.7567343 132.498113,62.7567343 C128.714089,62.7567343 125.646976,61.5144842 125.646976,59.9779651 C125.646976,58.4434209 128.714089,57.1991959 132.498113,57.1991959 C135.150485,57.1991959 137.423664,57.8153835 138.561241,58.7120155 L138.561241,27.1916487 L144.399224,27.1916487 L144.399224,39.7010474 C144.399224,38.1605784 147.466338,36.9203033 151.252336,36.9203033 C155.032411,36.9203033 158.099524,38.1605784 158.099524,39.7010474 C158.099524,41.2316417 155.032411,42.4798166 151.252336,42.4798166 M125.646976,113.132047 C123.802363,113.132047 122.137471,112.835803 120.901146,112.353913 L120.901146,134.439894 L120.901146,164.571864 L120.901146,195.400995 L115.065138,195.400995 L115.065138,164.571864 L115.065138,134.439894 L115.065138,90.5799753 C114.075683,90.7991959 112.951931,90.9413931 111.739305,90.9413931 C107.959231,90.9413931 104.892118,89.6951931 104.892118,88.1626239 C104.892118,86.6280797 107.959231,85.3799048 111.739305,85.3799048 C112.951931,85.3799048 114.075683,85.5221019 115.065138,85.7432975 L115.065138,51.2822148 L120.901146,51.2822148 L120.901146,108.352643 C122.137471,107.874703 123.802363,107.574509 125.646976,107.574509 C129.431,107.574509 132.498113,108.816759 132.498113,110.355253 C132.498113,111.887822 129.431,113.132047 125.646976,113.132047 M96.9527773,68.7112396 L96.9527773,104.458022 L96.9527773,134.588016 L96.9527773,165.417147 L91.1128196,165.417147 L91.1128196,134.588016 L91.1128196,104.458022 L91.1128196,31.0645459 C90.2872862,32.2218727 87.6842885,33.0691307 84.5599013,33.0691307 C80.7818022,33.0691307 77.7146888,31.8249057 77.7146888,30.2923364 C77.7146888,28.7558173 80.7818022,27.5155422 84.5599013,27.5155422 C87.6842885,27.5155422 90.2872862,28.3647752 91.1128196,29.520127 L91.1128196,21.2963922 L96.9527773,21.2963922 L96.9527773,65.5908023 C98.1812026,64.8501922 100.264786,64.3722518 102.620913,64.3722518 C106.400987,64.3722518 109.468101,65.6184518 109.468101,67.149046 C109.468101,68.6895151 106.400987,69.9297902 102.620913,69.9297902 C100.264786,69.9297902 98.1812026,69.4478998 96.9527773,68.7112396 M76.8773056,95.6398237 C73.5119732,95.6398237 70.7272791,94.6523435 70.1505907,93.3547946 L70.1505907,127.950175 L70.1505907,158.082144 L70.1505907,188.911275 L64.310633,188.911275 L64.310633,158.082144 L64.310633,127.950175 L64.310633,76.7216787 C63.0980074,77.501788 60.9749251,78.0152777 58.5457239,78.0152777 C54.7636748,78.0152777 51.6965615,76.7730277 51.6965615,75.2345336 C51.6965615,73.7039393 54.7636748,72.4577394 58.5457239,72.4577394 C60.9749251,72.4577394 63.0980074,72.973204 64.310633,73.7473885 L64.310633,44.7885452 L70.1505907,44.7885452 L70.1505907,92.3653394 C70.7272791,91.0697655 73.5119732,90.0803104 76.8773056,90.0803104 C80.6613296,90.0803104 83.7304179,91.3245354 83.7304179,92.8610545 C83.7304179,94.3955987 80.6613296,95.6398237 76.8773056,95.6398237 M104.896068,0.000394992065 C46.9625816,0.000394992065 0,46.9649515 0,104.896463 C0,162.829949 46.9625816,209.794505 104.896068,209.794505 C162.831529,209.794505 209.796085,162.829949 209.796085,104.896463 C209.796085,46.9649515 162.831529,0.000394992065 104.896068,0.000394992065" id="Fill-1" fill="#907259" mask="url(#mask-2)"></path>
            </g>
        </g>
    </g>
</svg>