<?xml version="1.0" encoding="UTF-8" standalone="no"?>
<svg width="114px" height="114px" viewBox="0 0 114 114" version="1.1" xmlns="http://www.w3.org/2000/svg" xmlns:xlink="http://www.w3.org/1999/xlink">
    <!-- Generator: Sketch 40.2 (33826) - http://www.bohemiancoding.com/sketch -->
    <title>Page 1</title>
    <desc>Created with Sketch.</desc>
    <defs>
        <polygon id="path-1" points="113.527817 113.065574 0 113.065574 0 0.542154098 113.527817 0.542154098 113.527817 113.065574"></polygon>
    </defs>
    <g id="Rug-builder" stroke="none" stroke-width="1" fill="none" fill-rule="evenodd">
        <g id="rug-builder-master" transform="translate(-3434.000000, -688.000000)">
            <g id="Page-1" transform="translate(3434.000000, 688.000000)">
                <g id="Group-3" transform="translate(0.000000, 0.392459)">
                    <mask id="mask-2" fill="white">
                        <use xlink:href="#path-1"></use>
                    </mask>
                    <g id="Clip-2"></g>
                    <path d="M113.527817,56.8039574 C113.527817,87.8764328 88.1136041,113.065761 56.76372,113.065761 C25.4138359,113.065761 -0.000377107438,87.8764328 -0.000377107438,56.8039574 C-0.000377107438,25.731482 25.4138359,0.542154098 56.76372,0.542154098 C88.1136041,0.542154098 113.527817,25.731482 113.527817,56.8039574" id="Fill-1" fill="#515151" mask="url(#mask-2)"></path>
                </g>
                <path d="M43.2764725,83.2922311 C45.1431543,83.2922311 46.9381857,83.5576082 48.6577956,84.0902311 C53.0171576,85.4376738 55.8520628,88.1989033 57.4085737,90.1640016 C60.0756661,86.3926574 63.4338078,84.0014607 67.4179479,83.0399361 C73.7514673,81.5149525 79.8728638,84.0631328 82.6455462,85.504018 L86.2242958,78.727559 C76.9747931,69.9299361 72.836039,61.419182 73.9211657,53.4167557 C75.1354516,44.4537393 82.5286429,38.998559 85.4785659,37.1540016 L82.7841332,29.2524934 C79.0074022,31.1998377 74.534908,30.9447393 69.7183033,28.4815918 C67.1718853,27.1780672 65.0940233,25.5446902 63.8778518,24.4859852 C61.7453093,26.3221328 59.4091287,27.2780508 56.914563,27.3322475 C53.8420801,27.4013951 51.2654936,26.0408705 49.7853469,25.0232803 C43.5706163,31.8408541 34.380508,30.0439525 30.5613524,28.8918049 L28.4627495,36.8633951 C37.0881394,42.7091656 41.5219801,49.3875098 41.6454828,56.7264934 C41.8434642,68.4600836 30.9412882,78.0846738 27.0127714,81.1673459 L31.2872843,86.4636738 C35.5372851,84.3518705 39.5478227,83.2922311 43.2764725,83.2922311 L43.2764725,83.2922311 Z M57.3774624,96.4844607 L56.014219,93.819477 C55.9915925,93.7746246 53.3886084,88.8754279 47.6528043,87.1233787 C43.0492652,85.7180016 37.6575717,86.6486902 31.6257382,89.8902148 L30.4416208,90.5256246 L22.3932053,80.5543623 L23.7941595,79.5769525 C23.9421741,79.4732311 38.6399365,69.0758705 38.4249853,56.7704115 C38.3109103,50.2892311 34.0411113,44.2752639 25.7343772,38.8967066 L24.7642683,38.2678377 L28.3609305,24.6018541 L30.0890254,25.3512639 C30.1173084,25.3643459 33.1765925,26.6622639 36.9787783,26.826723 C41.8359221,27.0388377 45.6324512,25.3634115 48.244863,21.8490344 L49.3394173,20.3773131 L50.6630644,21.6509361 C50.6866336,21.6724279 53.4376324,24.2682639 56.8683673,24.1393131 C58.9198318,24.0879197 60.8779621,23.0964934 62.6909062,21.1930672 L63.8429694,19.9829852 L65.0167163,21.1753131 C65.1166498,21.2781 75.1213101,31.297018 82.6719438,25.5474934 L84.4575475,24.1888377 L89.3910555,38.6537557 L88.1701702,39.2854279 C88.0740078,39.3358869 78.364434,44.5041984 77.1105518,53.8652803 C76.1508134,61.0276574 80.2565706,68.8880508 89.3137485,77.2278049 L90.2140925,78.0575754 L83.8984857,90.0154279 L82.4117396,89.0473623 C82.3429175,89.0034443 75.1816473,84.4443787 68.1608495,86.1478377 C64.3765764,87.0654443 61.2456419,89.6668869 58.8547807,93.8802148 L57.3774624,96.4844607 Z" id="Fill-4" fill="#FEFEFE"></path>
            </g>
        </g>
    </g>
</svg>