<?xml version="1.0" encoding="UTF-8" standalone="no"?>
<svg width="116px" height="117px" viewBox="0 0 116 117" version="1.1" xmlns="http://www.w3.org/2000/svg" xmlns:xlink="http://www.w3.org/1999/xlink">
    <!-- Generator: Sketch 40.2 (33826) - http://www.bohemiancoding.com/sketch -->
    <title>linen-icon</title>
    <desc>Created with Sketch.</desc>
    <defs>
        <polygon id="path-1" points="115.48437 116.040984 0 116.040984 0 0.556421311 115.48437 0.556421311 115.48437 116.040984"></polygon>
    </defs>
    <g id="Rug-builder" stroke="none" stroke-width="1" fill="none" fill-rule="evenodd">
        <g id="rug-builder-master" transform="translate(-4056.000000, -686.000000)">
            <g id="linen-icon" transform="translate(4056.000000, 686.000000)">
                <g id="Group-3" transform="translate(0.000000, 0.402787)">
                    <mask id="mask-2" fill="white">
                        <use xlink:href="#path-1"></use>
                    </mask>
                    <g id="Clip-2"></g>
                    <path d="M115.48437,58.2987984 C115.48437,90.1889705 89.6321656,116.041175 57.7419934,116.041175 C25.8518213,116.041175 -0.000383606558,90.1889705 -0.000383606558,58.2987984 C-0.000383606558,26.4086262 25.8518213,0.556421311 57.7419934,0.556421311 C89.6321656,0.556421311 115.48437,26.4086262 115.48437,58.2987984" id="Fill-1" fill="#515151" mask="url(#mask-2)"></path>
                </g>
                <path d="M88.6423648,39.5724689 C86.7933811,39.3902557 84.15225,39.1533787 80.9836598,38.9606164 C80.5070287,38.9299279 79.996832,38.9001984 79.4971844,38.8695098 C79.5441762,39.5379443 79.5719877,40.2322721 79.6093893,40.9160508 C80.0697172,40.8872803 80.5434713,40.8594689 80.9836598,40.8306984 C84.15225,40.6388951 86.7933811,40.402018 88.6423648,40.2198049 C90.4913484,40.0375918 91.5472254,39.8956574 91.5472254,39.8956574 C91.5472254,39.8956574 90.4913484,39.754682 88.6423648,39.5724689" id="Fill-4" fill="#FEFEFE"></path>
                <path d="M88.6423648,77.1836533 C86.7933811,77.0014402 84.15225,76.7645631 80.9836598,76.5727598 C80.5463484,76.5439893 80.0754713,76.5161779 79.6189795,76.4883664 C79.5825369,77.1711861 79.5537664,77.8645549 79.5077336,78.5329893 C80.0035451,78.5032598 80.5099057,78.4725713 80.9836598,78.4418828 C84.15225,78.2500795 86.7933811,78.0132025 88.6423648,77.8309893 C90.4913484,77.6487762 91.5472254,77.5068418 91.5472254,77.5068418 C91.5472254,77.5068418 90.4913484,77.3658664 88.6423648,77.1836533" id="Fill-6" fill="#FEFEFE"></path>
                <path d="M53.5882057,58.7015852 C53.5977959,58.1664541 53.6073861,57.632282 53.6179352,57.0971508 C52.4853369,57.105782 51.3431484,57.1134541 50.2239762,57.1220852 C47.7439598,57.1230443 45.3032631,57.2199049 42.9421648,57.2611426 C40.5801074,57.3014213 38.2976484,57.398282 36.1321893,57.4807574 C33.9676893,57.5507656 31.9201893,57.6581754 30.030927,57.7627082 C26.2524025,57.9545115 23.1039516,58.1933066 20.899173,58.3764787 C18.6953533,58.5586918 17.4352057,58.7015852 17.4352057,58.7015852 C17.4352057,58.7015852 18.6953533,58.8444787 20.899173,59.0266918 C23.1039516,59.2098639 26.2524025,59.448659 30.030927,59.6404623 C31.9201893,59.7449951 33.9676893,59.8524049 36.1321893,59.9224131 C38.2976484,60.0048885 40.5801074,60.1017492 42.9421648,60.1420279 C45.3032631,60.1832656 47.7439598,60.2801262 50.2239762,60.2810852 C51.3431484,60.2897164 52.4853369,60.2973885 53.6169762,60.3060197 C53.6073861,59.7708885 53.5977959,59.2367164 53.5882057,58.7015852" id="Fill-8" fill="#FEFEFE"></path>
                <path d="M94.5851016,58.3780131 C92.381282,58.1958 89.2318721,57.958923 85.4533475,57.7661607 C83.5640852,57.6645049 81.5165852,57.555177 79.3520852,57.4851689 C77.1866262,57.4055705 74.9041672,57.3039148 72.5421098,57.2645951 C70.1810115,57.2223984 67.7403148,57.1303328 65.2602984,57.1236197 C64.2236016,57.1159475 63.1648475,57.1082754 62.1166426,57.0996443 C62.1262328,57.6338164 62.135823,58.1670295 62.1463721,58.7012016 C62.136782,59.2363328 62.1271918,59.7685869 62.1176016,60.302759 C63.1648475,60.2950869 64.2236016,60.2874148 65.2602984,60.2797426 C67.7403148,60.2730295 70.1810115,60.1809639 72.5421098,60.1378082 C74.9041672,60.0994475 77.1866262,59.9977918 79.3520852,59.9181934 C81.5165852,59.8481852 83.5640852,59.7378984 85.4533475,59.6362426 C89.2318721,59.4444393 92.381282,59.2075623 94.5851016,59.0253492 C96.7889213,58.8431361 98.0490689,58.7012016 98.0490689,58.7012016 C98.0490689,58.7012016 96.7889213,58.5602262 94.5851016,58.3780131" id="Fill-10" fill="#FEFEFE"></path>
                <path d="M37.323,62.4890287 C37.3345082,64.0138648 37.3460164,64.5758484 37.3575246,66.0805451 C37.3575246,68.5145287 37.4543852,70.9091926 37.496582,73.2271352 C37.5359016,75.5450779 37.6337213,77.7862992 37.7152377,79.9105205 C37.7862049,82.0357008 37.8936148,84.0438811 37.9971885,85.8986189 C38.1899508,89.6071352 38.4277869,92.6980451 38.610959,94.8615861 C38.7941311,97.025127 38.9360656,98.2612992 38.9360656,98.2612992 C38.9360656,98.2612992 39.078959,97.025127 39.2621311,94.8615861 C39.4453033,92.6980451 39.6831393,89.6071352 39.8759016,85.8986189 C39.9794754,84.0438811 40.0868852,82.0357008 40.1578525,79.9105205 C40.2393689,77.7862992 40.3371885,75.5450779 40.3765082,73.2271352 C40.4187049,70.9091926 40.5155656,68.5145287 40.5155656,66.0805451 C40.5270738,64.6333893 40.537623,64.1299057 40.5491311,62.6635697 C39.4577705,62.6146598 38.377918,62.5609549 37.323,62.4890287" id="Fill-12" fill="#FEFEFE"></path>
                <path d="M40.5481721,54.7396008 C40.5366639,53.2732648 40.5251557,52.7697811 40.5146066,51.3226254 C40.5078934,48.8886418 40.4158279,46.4939779 40.3736311,44.1760352 C40.3343115,41.8580926 40.2326557,39.6168713 40.1530574,37.49265 C40.0830492,35.3674697 39.9737213,33.3592893 39.8711066,31.5045516 C39.6793033,27.7960352 39.4424262,24.7051254 39.2602131,22.5415844 C39.078,20.3780434 38.9370246,19.1418713 38.9370246,19.1418713 C38.9370246,19.1418713 38.7950902,20.3780434 38.612877,22.5415844 C38.4306639,24.7051254 38.1937869,27.7960352 38.0019836,31.5045516 C37.9003279,33.3592893 37.790041,35.3674697 37.7200328,37.49265 C37.6404344,39.6168713 37.5387787,41.8580926 37.499459,44.1760352 C37.4572623,46.4939779 37.3651967,48.8886418 37.3584836,51.3226254 C37.3469754,52.8273221 37.3354672,53.3893057 37.323959,54.9141418 C38.377918,54.8422156 39.4577705,54.7885107 40.5481721,54.7396008" id="Fill-14" fill="#FEFEFE"></path>
                <path d="M36.197882,38.8513844 C35.6243902,38.885909 35.0451443,38.9213926 34.501382,38.9568762 C31.3318328,39.1486795 28.6907016,39.3874746 26.841718,39.5706467 C24.9936934,39.7528598 23.9368574,39.8957533 23.9368574,39.8957533 C23.9368574,39.8957533 24.9936934,40.0386467 26.841718,40.2218189 C28.6907016,40.404991 31.3318328,40.642827 34.501382,40.8355893 C35.0077426,40.8681959 35.5505459,40.9008025 36.083759,40.933409 C36.1211607,40.2371631 36.1499311,39.5322861 36.197882,38.8513844" id="Fill-16" fill="#FEFEFE"></path>
                <path d="M70.155118,38.4593385 C68.1747492,38.4161828 66.1272492,38.3250762 64.0481016,38.3183631 C61.9679951,38.2991828 59.855282,38.2800025 57.7425689,38.2608221 C55.6298557,38.2800025 53.5161836,38.2982238 51.4370361,38.3164451 C49.3569295,38.3174041 47.3103885,38.4142648 45.3290607,38.4555025 C44.2194787,38.4775598 43.1367492,38.5187975 42.0732,38.5648303 C42.1374541,39.4375352 42.1796508,40.3361336 42.2256836,41.233773 C43.2393639,41.2769287 44.2731836,41.3152893 45.3290607,41.3363877 C47.3103885,41.3776254 49.3569295,41.4744861 51.4370361,41.4754451 C53.5161836,41.4936664 55.6298557,41.5118877 57.7425689,41.531068 C59.855282,41.5118877 61.9679951,41.4927074 64.0481016,41.473527 C66.1272492,41.4668139 68.1747492,41.3757074 70.155118,41.3325516 C71.2857984,41.3104943 72.3877082,41.2673385 73.4694787,41.2203467 C73.5145525,40.3313385 73.5567492,39.4423303 73.6190852,38.5782566 C72.4893639,38.5283877 71.3395033,38.4823549 70.155118,38.4593385" id="Fill-18" fill="#FEFEFE"></path>
                <path d="M36.0742648,76.4703369 C35.5439287,76.5029434 35.0049615,76.534591 34.5014779,76.5681566 C31.3319287,76.7599598 28.6907975,76.9987549 26.8418139,77.181927 C24.9928303,77.3641402 23.9369533,77.5070336 23.9369533,77.5070336 C23.9369533,77.5070336 24.9928303,77.649927 26.8418139,77.8330992 C28.6907975,78.0162713 31.3319287,78.2541074 34.5014779,78.4468697 C35.0414041,78.4813943 35.617773,78.5168779 36.1874287,78.5514025 C36.1394779,77.8705008 36.1116664,77.1656238 36.0742648,76.4703369" id="Fill-20" fill="#FEFEFE"></path>
                <path d="M73.4602721,76.1828238 C72.3813787,76.135832 71.2833049,76.0926762 70.1555016,76.0706189 C68.1741738,76.0274631 66.1276328,75.9363566 64.0475262,75.9296434 C61.9674197,75.9104631 59.8547066,75.8912828 57.7419934,75.8721025 C55.6292803,75.8912828 53.5165672,75.9095041 51.4364607,75.9277254 C49.3573131,75.9286844 47.3098131,76.0255451 45.3294443,76.0667828 C44.2764443,76.0878811 43.2455016,76.1262418 42.2346984,76.1684385 C42.1896246,77.0670369 42.1464689,77.9656352 42.0841328,78.8392992 C43.1438459,78.884373 44.2227393,78.9256107 45.3294443,78.947668 C47.3098131,78.9889057 49.3573131,79.0857664 51.4364607,79.0867254 C53.5165672,79.1049467 55.6292803,79.123168 57.7419934,79.1423484 C59.8547066,79.123168 61.9674197,79.1039877 64.0475262,79.0848074 C66.1276328,79.0780943 68.1741738,78.9869877 70.1555016,78.943832 C71.3350918,78.9208156 72.4820754,78.8747828 73.6089197,78.8249139 C73.5465836,77.9608402 73.5053459,77.071832 73.4602721,76.1828238" id="Fill-22" fill="#FEFEFE"></path>
                <path d="M57.7421852,35.8133164 C58.1545623,35.8229066 58.5611852,35.8315377 58.9726033,35.8411279 C58.9687672,35.7087836 58.9630131,35.5678082 58.959177,35.4354639 C58.8891689,33.1050541 58.778882,30.9012344 58.6772262,28.8671607 C58.4844639,24.7990131 58.2485459,21.4088902 58.0653738,19.0353246 C57.8841197,16.662718 57.7421852,15.3057098 57.7421852,15.3057098 C57.7421852,15.3057098 57.6002508,16.662718 57.4189967,19.0353246 C57.2358246,21.4088902 56.9999066,24.7990131 56.8071443,28.8671607 C56.7054885,30.9012344 56.5952016,33.1050541 56.5251934,35.4354639 C56.5213574,35.5668492 56.5165623,35.7078246 56.5117672,35.8401689 C56.9231852,35.8315377 57.3298082,35.8219475 57.7421852,35.8133164" id="Fill-24" fill="#FEFEFE"></path>
                <path d="M78.1437246,55.1052738 C78.1379705,54.361077 78.1312574,52.4181098 78.1255033,51.6806262 C78.1187902,49.3646016 78.0276836,47.0859787 77.9845279,44.880241 C77.9452082,42.6745033 77.8445115,40.5426098 77.7639541,38.5210033 C77.6949049,36.4993967 77.584618,34.587118 77.4829623,32.8234869 C77.2902,29.2943066 77.053323,26.3539623 76.8711098,24.2949541 C76.6898557,22.2369049 76.5479213,21.0601918 76.5479213,21.0601918 C76.5479213,21.0601918 76.4059869,22.2369049 76.2237738,24.2949541 C76.0415607,26.3539623 75.8056426,29.2943066 75.6128803,32.8234869 C75.5112246,34.587118 75.4009377,36.4993967 75.3309295,38.5210033 C75.2513311,40.5426098 75.1506344,42.6745033 75.1113148,44.880241 C75.068159,47.0859787 74.9770525,49.3646016 74.9703393,51.6806262 C74.9636262,52.4919541 74.9569131,54.2709295 74.9502,55.0889705 C76.0319705,55.063077 77.0974377,55.1915852 78.1437246,55.1052738" id="Fill-26" fill="#FEFEFE"></path>
                <path d="M74.9490492,62.3141041 C74.9557623,63.1331041 74.9615164,64.9111205 74.9682295,65.7224484 C74.9691885,68.038473 75.0660492,70.3170959 75.1072869,72.5228336 C75.1475656,74.7285713 75.2444262,76.8604648 75.3269016,78.8820713 C75.3969098,80.9046369 75.5052787,82.8159566 75.6088525,84.5805467 C75.8006557,88.108768 76.0394508,91.0500713 76.222623,93.1081205 C76.4048361,95.1671287 76.5477295,96.3428828 76.5477295,96.3428828 C76.5477295,96.3428828 76.690623,95.1671287 76.8728361,93.1081205 C77.0560082,91.0500713 77.2948033,88.108768 77.4866066,84.5805467 C77.5911393,82.8159566 77.6985492,80.9046369 77.7685574,78.8820713 C77.8510328,76.8604648 77.9488525,74.7285713 77.9881721,72.5228336 C78.0303689,70.3170959 78.1262705,68.038473 78.1272295,65.7224484 C78.1329836,64.9849648 78.3660246,63.0525467 78.3717787,62.309309 C77.3245328,62.2220385 76.0317787,62.3399975 74.9490492,62.3141041" id="Fill-28" fill="#FEFEFE"></path>
                <path d="M57.7421852,81.2384705 C57.321177,81.2307984 56.906882,81.2231262 56.4858738,81.2154541 C56.497382,81.5482328 56.5098492,81.6393393 56.5213574,81.967323 C56.5913656,84.2977328 56.6997344,86.5015525 56.8033082,88.5356262 C56.9951115,92.6047328 57.2339066,95.9948557 57.4170787,98.3674623 C57.5992918,100.741028 57.7421852,102.097077 57.7421852,102.097077 C57.7421852,102.097077 57.8850787,100.741028 58.0672918,98.3674623 C58.2504639,95.9948557 58.489259,92.6047328 58.6810623,88.5356262 C58.7855951,86.5015525 58.8930049,84.2977328 58.9630131,81.967323 C58.9745213,81.6393393 58.9869885,81.5482328 58.9984967,81.2144951 C58.5774885,81.2221672 58.1631934,81.2307984 57.7421852,81.2384705" id="Fill-30" fill="#FEFEFE"></path>
                <path d="M56.2891795,73.6862164 C56.7754008,73.6775852 57.254909,73.6679951 57.7420893,73.6593639 C58.2292697,73.6689541 58.7087779,73.6775852 59.1949992,73.6871754 C59.241032,71.321282 59.3206303,69.2680279 59.3215893,66.7956836 C59.3398107,64.125782 59.358032,61.4136836 59.3772123,58.7015852 C59.358032,55.9894869 59.3388516,53.2773885 59.3196713,50.6074869 C59.3139172,48.3432492 59.2506221,46.1221672 59.2045893,43.946159 C58.714532,43.9567082 58.2321467,43.9672574 57.7420893,43.9787656 C57.252032,43.9682164 56.7696467,43.9576672 56.2795893,43.947118 C56.2335566,46.1231262 56.1702615,48.3442082 56.1645074,50.6074869 C56.145327,53.2773885 56.1261467,55.9894869 56.1069664,58.7015852 C56.1261467,61.4136836 56.144368,64.125782 56.1625893,66.7956836 C56.1635484,69.2670689 56.2441057,71.321282 56.2891795,73.6862164" id="Fill-32" fill="#FEFEFE"></path>
            </g>
        </g>
    </g>
</svg>