<?xml version="1.0" encoding="UTF-8" standalone="no"?>
<svg width="211px" height="209px" viewBox="0 0 211 209" version="1.1" xmlns="http://www.w3.org/2000/svg" xmlns:xlink="http://www.w3.org/1999/xlink">
    <!-- Generator: Sketch 40.2 (33826) - http://www.bohemiancoding.com/sketch -->
    <title>seagrass-icon</title>
    <desc>Created with Sketch.</desc>
    <defs>
        <polygon id="path-1" points="209.752313 208.063358 209.752313 0.244052752 2.64794411e-20 0.244052752 0 208.063358 209.752313 208.063358"></polygon>
    </defs>
    <g id="Materials---Home" stroke="none" stroke-width="1" fill="none" fill-rule="evenodd">
        <g id="Materials" transform="translate(-289.000000, -646.000000)">
            <g id="seagrass-icon" transform="translate(289.854545, 646.000000)">
                <path d="M104.194218,190.383268 L104.194218,188.422234 C104.10499,188.232519 104.012737,188.035061 103.918972,187.831794 C104.074743,188.817151 104.154897,189.672805 104.194218,190.383268" id="Fill-1" fill="#A89970"></path>
                <path d="M96.0928739,134.948139 C94.4145271,134.948139 91.1672485,136.3439 89.9421922,136.864648 C89.7018701,136.973057 89.3325947,137.129862 89.0492882,138.037784 C87.1560193,144.128025 93.8264219,160.050539 101.651543,174.643113 C100.946207,154.541059 99.6234589,134.948139 96.0928739,134.948139" id="Fill-3" fill="#A89970"></path>
                <path d="M108.863549,170.459315 L108.863549,172.764934 C120.821037,146.981107 132.727725,115.056708 128.52502,104.639802 C127.946684,103.199516 127.227671,102.789112 126.606351,102.578102 C126.147199,102.421297 125.721262,102.33999 125.340264,102.33999 C121.667049,102.33999 116.022411,110.8249 112.20852,134.734806 C109.4751,151.882725 108.898718,169.311345 108.863549,170.459315" id="Fill-5" fill="#A89970"></path>
                <path d="M104.974826,137.504065 C106.856371,126.51995 108.548395,120.747192 109.210746,118.720338 C109.193162,114.651143 109.017316,94.4290657 107.374138,73.903057 C104.078014,32.6903625 98.0426087,28.0829966 97.2571659,27.651298 C97.2356736,27.6590415 97.2083199,27.6687208 97.1848739,27.6784001 C88.1757273,31.288794 85.8545679,51.1469283 90.8016855,82.1653417 C94.3322705,104.280698 100.477091,125.670104 102.141761,131.260891 C103.030757,132.370143 103.960784,134.244064 104.974826,137.504065" id="Fill-7" fill="#A89970"></path>
                <g id="Group-11" transform="translate(0.000000, 0.683361)">
                    <mask id="mask-2" fill="white">
                        <use xlink:href="#path-1"></use>
                    </mask>
                    <g id="Clip-10"></g>
                    <path d="M173.754218,106.542566 C171.395936,106.168944 169.022023,105.530107 166.544556,104.039489 C165.895882,103.667802 165.555914,103.336769 165.047916,102.990249 L163.777922,102.020379 C163.394969,101.755165 162.994433,101.55577 162.617342,101.290556 C162.205082,101.118264 161.806499,100.897575 161.380563,100.754321 C160.532597,100.50653 159.670954,100.233572 158.795635,100.163881 C157.930085,100.06128 157.062581,100.049665 156.241969,100.074831 C154.614422,100.152266 153.186166,100.398121 152.17994,100.607195 C151.165898,100.816269 150.577793,100.980817 150.577793,100.980817 C150.577793,100.980817 150.954884,100.49685 151.775495,99.8038097 C152.601969,99.1185124 153.879779,98.2067186 155.675356,97.5369083 C157.449441,96.851611 159.829215,96.4102331 162.40242,96.8942001 C163.043279,97.0142239 163.674368,97.232977 164.323042,97.4265638 C164.936548,97.6995212 165.585222,97.951184 166.165512,98.3112555 L167.720767,99.3508166 C168.176011,99.6470044 168.717224,100.101933 169.10213,100.268418 C170.631985,101.178276 172.744084,102.045545 174.647122,102.635985 C176.602914,103.247719 178.52549,103.702648 180.205791,104.097565 C183.658222,104.842874 185.965705,105.340392 185.965705,105.340392 C185.965705,105.340392 183.70316,106.352851 180.051437,106.705179 C178.234368,106.891023 176.073424,106.902638 173.754218,106.542566 M169.125576,146.913158 C169.047422,147.199667 168.900885,147.635237 168.562871,148.109525 C168.230718,148.583812 167.724674,149.127791 167.019339,149.576913 C166.32768,150.039585 165.456268,150.442246 164.467626,150.688101 C162.500112,151.2224 160.147691,151.234016 157.771824,150.868137 C156.587798,150.626153 155.268958,150.420951 154.198254,150.06088 C153.090428,149.718231 151.965018,149.371711 150.839607,149.02519 C149.763042,148.715451 148.684524,148.37861 147.609913,148.14437 C146.53921,147.8869 145.491953,147.65266 144.452511,147.472624 C143.422838,147.346793 142.416612,147.160949 141.455324,147.089322 C140.497943,147.031246 139.577685,146.957683 138.721904,146.953811 C137.018158,146.94994 135.556687,147.073835 134.517245,147.234512 C133.483665,147.38551 132.881883,147.557802 132.881883,147.557802 C132.881883,147.557802 133.272651,147.06222 134.165554,146.405961 C135.054551,145.755509 136.463268,144.950188 138.301829,144.390722 C139.225995,144.094534 140.243944,143.846743 141.338093,143.709297 C142.434196,143.556363 143.59673,143.467313 144.806156,143.498287 C145.994089,143.564107 147.250407,143.59508 148.481325,143.831256 C149.735689,143.995805 150.954884,144.353941 152.176032,144.677231 L153.967702,145.285093 L155.603064,145.871661 C156.749967,146.307232 157.685855,146.638265 158.674497,146.971234 C159.674862,147.222897 160.632243,147.548123 161.556408,147.724287 C162.476666,147.906259 163.34417,148.043705 164.141335,148.099845 C164.940455,148.125012 165.671191,148.103717 166.319865,147.987565 C166.947047,147.85399 167.509752,147.679762 167.937643,147.445522 C168.824685,146.996401 169.201776,146.469844 169.201776,146.469844 C169.201776,146.469844 169.201776,146.624714 169.125576,146.913158 M130.14651,168.678123 C129.728389,168.931721 129.222345,169.249204 128.62447,169.558942 C128.010965,169.857066 127.440444,170.331354 126.760509,170.714656 C126.098158,171.14829 125.377192,171.523849 124.642549,172.050405 C123.907906,172.542115 123.132232,173.064799 122.333112,173.604907 C121.573069,174.17018 120.777857,174.76062 119.978738,175.358803 C119.236279,176.016998 118.370729,176.55517 117.655624,177.265633 C116.121862,178.568472 114.656483,179.95649 113.325919,181.325148 C112.663568,182.027868 112.032479,182.705422 111.432651,183.350066 C110.875807,184.039235 110.272071,184.645162 109.781658,185.260768 C108.296741,187.028216 107.179145,188.462694 106.684824,189.109274 C106.706317,189.997837 106.727809,190.87285 106.753209,191.778836 C106.753209,191.778836 106.247165,190.98513 105.397245,189.593241 C104.678233,191.000617 104.273789,191.778836 104.273789,191.778836 C104.273789,191.778836 103.076086,189.585497 101.149602,186.662337 C100.688496,185.918963 100.092575,185.173654 99.566993,184.341231 C98.9671648,183.555268 98.3653827,182.713166 97.699124,181.874935 C97.0543575,181.027025 96.337299,180.198473 95.5948406,179.369922 C94.8914589,178.516204 94.0884316,177.718626 93.3049426,176.909433 C92.5663918,176.061523 91.6637187,175.370418 90.8880451,174.567033 C90.0439871,173.831403 89.2155598,173.113196 88.4125325,172.410476 C87.562613,171.756153 86.7420011,171.111509 85.9604659,170.507518 C85.1926076,169.86481 84.3719957,169.39633 83.6686141,168.854287 C82.933971,168.368384 82.3087429,167.808918 81.6776532,167.448846 C81.0602405,167.071352 80.5366119,166.691922 80.089183,166.389927 C79.2080021,165.770449 78.7078196,165.369724 78.7078196,165.369724 C78.7078196,165.369724 79.3252324,165.402634 80.4115663,165.542016 C80.9527794,165.619451 81.6190381,165.698822 82.367358,165.849819 C83.139124,165.948549 83.9421514,166.231185 84.8350553,166.515758 C85.7279592,166.827433 86.7517703,167.063609 87.695474,167.584357 C88.6626237,168.058645 89.7352807,168.503894 90.7375996,169.138859 C91.7125647,169.808669 92.8028062,170.41266 93.7680021,171.206366 C94.5788449,171.899407 95.4053183,172.582768 96.1790381,173.3455 C87.7638583,157.301026 78.8211422,136.006478 88.1214106,132.012782 C91.3335201,130.632508 93.9497091,129.720714 96.0930692,129.720714 C96.4564831,129.720714 96.8023124,129.757496 97.1364187,129.813636 C92.0212711,112.191429 70.4977928,32.7840585 95.4658873,22.7833642 C96.0969769,22.5317014 96.7065743,22.4078058 97.3005411,22.4078058 C110.662838,22.4039341 113.196966,85.0466877 113.681518,109.310858 C116.59469,102.045545 120.38709,97.1129532 125.340069,97.1129532 C126.219296,97.1129532 127.139553,97.2678226 128.096934,97.5930484 C144.07542,103.048325 123.409677,151.899954 111.551835,177.006227 C111.764803,176.741013 111.968002,176.471927 112.208324,176.226072 C112.935152,175.358803 113.796794,174.596071 114.656483,173.829467 C115.500541,173.047377 116.483322,172.431771 117.397718,171.773576 C118.325791,171.128931 119.363279,170.681746 120.297213,170.159062 C121.240917,169.651864 122.256913,169.357612 123.159586,169.009156 C124.046628,168.620046 125.021593,168.476792 125.846113,168.277398 C126.688217,168.099298 127.458029,167.909583 128.130149,167.899904 C128.800316,167.837956 129.39819,167.834084 129.888603,167.814725 C130.871384,167.801174 131.443858,167.830212 131.443858,167.830212 C131.443858,167.830212 130.982753,168.167053 130.14651,168.678123 M71.6310188,110.311701 C70.2887322,111.120894 68.1707719,112.06947 65.4588449,112.568924 C64.7769554,112.665717 64.0677123,112.774126 63.3291616,112.880598 C62.5906108,112.94061 61.8266602,112.952225 61.0275405,112.992879 C60.2401439,112.965776 59.4293011,112.944482 58.6028277,112.915444 C57.7763543,112.853496 56.9420655,112.714114 56.0823768,112.605705 C54.4079377,112.286287 52.657299,111.962997 50.9027525,111.366749 C49.113037,110.85568 47.6613355,110.143281 45.9693119,109.545098 C45.2209919,109.266333 44.4785335,108.939171 43.726306,108.685572 C42.9623553,108.468755 42.2023124,108.251938 41.4500848,108.033185 C40.6861342,107.884123 39.9299989,107.733125 39.181679,107.585999 C38.4255437,107.435001 37.6772238,107.446617 36.9406269,107.357567 C35.4674332,107.30917 34.0313623,107.344016 32.6656296,107.537603 C31.3174815,107.748612 30.0318561,108.046736 28.8615072,108.410679 C27.7048352,108.819147 26.6399936,109.239231 25.7158282,109.686416 C24.815109,110.156832 24.0101278,110.582723 23.3751304,110.981512 C22.0914589,111.775218 21.403708,112.338555 21.403708,112.338555 C21.403708,112.338555 21.7866602,111.53517 22.765533,110.311701 C23.2637617,109.711582 23.9046205,108.997247 24.7330478,108.259681 C25.1570306,107.905417 25.6181363,107.533731 26.0987805,107.136878 C26.6126398,106.776806 27.1733913,106.422543 27.755635,106.054728 C28.9591991,105.363623 30.3425164,104.705428 31.8938637,104.244691 C33.4471648,103.782019 35.1450499,103.429691 36.9269501,103.367743 C38.7049426,103.290308 40.543504,103.408396 42.3820655,103.733622 C43.2788771,103.948503 44.1815502,104.167256 45.0900848,104.395689 C45.9771272,104.674454 46.8348621,105.024846 47.7121353,105.344264 C49.2888824,105.923089 50.9672292,106.732281 52.440423,107.227864 C53.9097091,107.771843 55.4258873,108.282912 56.9166656,108.689444 C57.659124,108.865608 58.4035362,109.010798 59.1245024,109.208257 C59.8552378,109.343767 60.5664348,109.479278 61.2600472,109.60511 C62.6550875,109.775466 63.9895588,109.922592 65.2361074,109.967117 C67.7174815,110.029065 69.8237187,109.783209 71.2930048,109.475406 C72.7701063,109.173411 73.5985335,108.840442 73.5985335,108.840442 C73.5985335,108.840442 72.9889361,109.498637 71.6310188,110.311701 M65.4901063,145.991685 C64.0384047,146.613099 62.2467354,147.135783 60.2206055,147.366151 C58.2042448,147.592648 55.9280236,147.476496 53.7240945,146.802814 C52.6983296,146.489203 51.234905,145.85811 50.5725539,145.362528 L49.9551412,144.969547 L49.5546044,144.698525 L49.3025593,144.524297 C48.9762684,144.305544 48.6480236,144.015164 48.3275942,143.846743 C47.6828277,143.45957 47.0595534,143.113049 46.4909866,142.967859 C45.9106967,142.776208 45.389022,142.729747 44.8595319,142.809118 C43.7888288,142.977539 42.8275405,143.748014 42.23162,144.336518 C41.6122534,144.938573 41.303547,145.376079 41.303547,145.376079 C41.303547,145.376079 41.2351626,144.845651 41.4266388,143.922242 C41.5262845,143.45957 41.6943145,142.890424 42.0420977,142.274818 C42.4074654,141.682443 42.8959249,140.952621 43.7556135,140.457038 C44.5723178,139.916931 45.6938207,139.54718 46.8094622,139.576218 C47.9524573,139.543309 49.0524681,139.833689 50.0821406,140.22667 C50.6370306,140.395091 51.0746903,140.679663 51.5729189,140.927454 C51.9871326,141.132656 52.3935309,141.349474 52.8155598,141.558547 L53.464234,141.905068 L53.9956779,142.088975 C54.3434611,142.214807 54.6345829,142.373548 55.0741965,142.462598 C55.8674546,142.729747 56.7115126,142.880745 57.5477552,143.045294 C58.4035362,143.169189 59.2573634,143.27179 60.1131444,143.339546 C60.96111,143.378263 61.805168,143.430532 62.6121031,143.434403 C63.4190381,143.444083 64.2025271,143.463441 64.9313086,143.444083 C67.951942,143.358905 69.9663489,143.300829 69.9663489,143.300829 C69.9663489,143.300829 68.4189093,144.806934 65.4901063,145.991685 M104.877524,0.244052752 C46.9579538,0.244052752 -0.000586151367,46.7668333 -0.000586151367,104.157577 C-0.000586151367,161.544449 46.9579538,208.063358 104.877524,208.063358 C162.799049,208.063358 209.753681,161.544449 209.753681,104.157577 C209.753681,46.7668333 162.799049,0.244052752 104.877524,0.244052752" id="Fill-9" fill="#A89970" mask="url(#mask-2)"></path>
                </g>
            </g>
        </g>
    </g>
</svg>