<?xml version="1.0" encoding="UTF-8" standalone="no"?>
<svg width="211px" height="209px" viewBox="0 0 211 209" version="1.1" xmlns="http://www.w3.org/2000/svg" xmlns:xlink="http://www.w3.org/1999/xlink">
    <!-- Generator: Sketch 40.2 (33826) - http://www.bohemiancoding.com/sketch -->
    <title>sisal</title>
    <desc>Created with Sketch.</desc>
    <defs>
        <polygon id="path-1" points="209.833186 208.043403 0 208.043403 0 0.198580035 209.833186 0.198580035 209.833186 208.043403"></polygon>
    </defs>
    <g id="Materials---Home" stroke="none" stroke-width="1" fill="none" fill-rule="evenodd">
        <g id="Materials" transform="translate(-290.000000, -1669.000000)">
            <g id="sisal" transform="translate(290.854545, 1669.000000)">
                <path d="M92.2576117,150.523358 C90.3537139,150.043991 88.4788981,149.668325 86.6370418,149.380705 C86.5013261,149.390488 86.1310161,149.415924 85.495091,149.415924 C84.1379337,149.415924 81.7163774,149.273092 78.6996107,148.623502 C70.5721775,148.333925 63.6991454,149.484405 59.4299164,150.527271 C66.5065221,153.526734 74.1240519,154.933528 82.1467901,154.733955 C85.7762164,152.52887 89.2641105,151.241429 92.2576117,150.523358" id="Fill-1" fill="#6D7C6A"></path>
                <path d="M75.1264095,165.839796 C80.0296248,166.148939 89.4851333,165.610874 96.8680688,158.357769 C97.2170521,156.342473 97.6804243,154.773282 98.1437966,153.566062 C93.4286445,153.830203 83.77344,155.712449 75.1264095,165.839796" id="Fill-3" fill="#6D7C6A"></path>
                <path d="M117.047252,146.696253 C121.184643,141.388005 124.9905,134.856884 128.424108,127.80922 L128.336862,127.660519 C128.418291,127.605734 128.493904,127.552906 128.575334,127.502035 C138.149109,107.769752 144.826323,84.2866719 147.674414,73.2827691 C121.744955,98.7615781 110.99627,135.79605 110.885758,136.189326 L110.701573,136.138455 C111.944341,139.889252 112.989352,143.718313 113.809463,147.621724 C114.895189,147.287146 115.977037,146.96822 117.047252,146.696253" id="Fill-5" fill="#6D7C6A"></path>
                <path d="M108.648388,130.432039 C110.2382,125.787077 113.144456,118.125043 117.570727,109.236221 L117.144192,109.234265 C117.382664,63.4166276 109.75544,42.03102 106.170606,34.5333394 C97.378166,56.5881033 93.4288384,79.6231224 94.3788485,103.080766 C99.7531912,111.306301 104.799877,120.53557 108.648388,130.432039" id="Fill-7" fill="#6D7C6A"></path>
                <path d="M110.019117,148.670069 C106.630101,132.295307 98.9931832,117.114069 90.5943185,104.413796 L90.5206443,104.415753 L90.5206443,104.298357 C80.4408434,89.074074 69.3567462,77.4127545 63.4531121,71.6701417 C71.3498286,108.800487 97.1590821,144.144459 101.058001,149.329442 C104.247321,146.940437 107.618887,147.451109 110.019117,148.670069" id="Fill-9" fill="#6D7C6A"></path>
                <path d="M94.6148,147.066833 C92.2358972,143.683876 88.9748422,138.829559 85.3473547,132.87759 L85.2891908,132.971507 C67.7062491,122.247397 52.80854,104.786724 45.8288741,95.8294215 C48.2097157,114.751673 54.3673321,128.600468 64.1660075,137.043185 C69.4220837,141.574665 74.8080592,143.683876 78.9667768,144.662175 C83.8215222,144.855878 89.1008639,145.548514 94.6148,147.066833" id="Fill-11" fill="#6D7C6A"></path>
                <path d="M102.748631,152.928994 C102.366688,153.515973 100.187482,157.210029 100.187482,165.239904 C100.187482,171.596888 103.853745,176.04032 105.777031,177.924523 C108.563081,175.220506 115.013455,167.014537 109.356048,152.846817 C108.316854,152.032872 105.486211,150.301284 102.748631,152.928994" id="Fill-13" fill="#6D7C6A"></path>
                <path d="M131.682836,130.12818 C128.945256,135.657523 125.978898,140.901204 122.783762,145.52073 C127.066563,144.830051 131.136096,144.56591 134.879911,144.606999 C139.0522,143.599351 144.409094,141.476443 149.603128,136.978226 C159.335885,128.545292 165.456664,114.768891 167.849138,95.9601222 C161.439479,104.267834 148.271176,119.619296 131.682836,130.12818" id="Fill-15" fill="#6D7C6A"></path>
                <path d="M118.828878,150.287082 L118.822817,150.282501 C118.819786,150.282501 118.818271,150.285555 118.81524,150.285555 C118.819786,150.285555 118.822817,150.287082 118.828878,150.287082" id="Fill-17" fill="#141515"></path>
                <g id="Group-21" transform="translate(0.000000, 0.446104)">
                    <mask id="mask-2" fill="white">
                        <use xlink:href="#path-1"></use>
                    </mask>
                    <g id="Clip-20"></g>
                    <path d="M172.424115,88.7463439 C170.67726,112.32921 163.819738,129.42987 152.047369,139.576783 C149.426116,141.836653 146.783537,143.531066 144.237898,144.841986 C151.64216,145.85746 156.463946,147.64579 156.873032,147.802318 L160.851442,149.328464 L157.097932,151.359412 C150.265615,155.05738 142.874924,157.250726 135.077087,157.964884 C137.518031,160.046703 139.949281,162.576584 142.268081,165.744314 L144.038202,168.158755 L141.128069,168.820085 C140.877964,168.876827 138.419571,169.412934 134.811471,169.412934 C129.662029,169.412934 122.168582,168.315283 115.433205,163.194868 C115.413817,167.605038 114.355234,171.169959 113.114404,173.754623 C110.619174,178.943519 107.032401,181.555577 106.881175,181.663189 L105.737285,182.483004 L104.606967,181.643623 C104.267678,181.395136 96.3031036,175.384469 96.3031036,164.793408 C96.3031036,164.302302 96.3418795,163.899243 96.3554511,163.441399 C89.7111969,168.327023 82.3980581,169.412934 77.3378003,169.412934 C73.7355172,169.412934 71.2751849,168.876827 71.0192639,168.820085 L68.1130085,168.158755 L69.8831294,165.744314 C72.1418268,162.652891 74.5110356,160.179752 76.8918772,158.127281 C68.4426039,157.602913 60.4605804,155.345 53.0815225,151.359412 L49.3241357,149.328464 L53.3122392,147.804274 C53.7717339,147.628181 59.7936345,145.399616 68.8187303,144.507408 C66.4689095,143.245403 64.0473531,141.644906 61.643246,139.576783 C49.8708762,129.42987 43.0152932,112.32921 41.2664991,88.7463439 L40.7430242,81.6419394 L44.795108,87.4745557 C44.9676609,87.7230436 60.6719092,110.088906 80.878042,124.82991 C71.8161091,108.807335 61.9650862,87.5215141 58.5450499,66.0772085 L57.7055512,60.8198318 L61.7207978,64.2751825 C61.9728413,64.4923648 76.4711585,77.1437224 90.3878368,96.7742623 C90.261815,73.502495 94.835435,50.6846582 104.120329,28.8490332 L105.434833,25.7576095 L107.449242,28.4361911 C107.995983,29.1640453 120.379073,46.294054 121.003366,102.264474 C127.752315,90.0396547 137.194252,76.46087 149.844896,65.5195783 L154.30025,61.6650818 L153.003195,67.4390002 C152.629007,69.096238 146.176694,97.40233 134.908411,122.77157 C154.711274,108.343622 168.724893,87.7289134 168.879996,87.4960783 L172.966978,81.4208439 L172.424115,88.7463439 Z M106.854032,0.198580035 C49.9852651,0.198580035 -0.000775518434,46.7284186 -0.000775518434,104.121285 C-0.000775518434,161.512195 49.9852651,208.04399 106.854032,208.04399 C163.726676,208.04399 209.833186,161.512195 209.833186,104.121285 C209.833186,46.7284186 163.726676,0.198580035 106.854032,0.198580035 L106.854032,0.198580035 Z" id="Fill-19" fill="#6D7C6A" mask="url(#mask-2)"></path>
                </g>
                <path d="M115.021404,158.58669 L115.265693,158.338203 C122.675771,165.646093 132.154545,166.164591 137.032556,165.84371 C128.199401,155.495267 118.296031,153.751939 113.701084,153.548453 C114.284662,155.30352 114.746095,156.997934 115.021404,158.58669" id="Fill-22" fill="#6D7C6A"></path>
                <path d="M128.199014,149.415141 C127.502986,149.415141 127.080328,149.383835 126.993082,149.376009 L127.027981,148.955341 C124.519179,149.211655 121.946396,149.581452 119.294123,150.184084 C119.247592,150.240825 119.206877,150.297566 119.162285,150.352351 C122.318645,151.033247 126.087665,152.35395 130.027298,154.750782 C137.321049,154.676431 144.271633,153.27942 150.747212,150.526488 C147.146868,149.651889 141.720177,148.671634 135.24266,148.560108 C132.113443,149.262526 129.593008,149.415141 128.199014,149.415141" id="Fill-24" fill="#6D7C6A"></path>
            </g>
        </g>
    </g>
</svg>