<?xml version="1.0" encoding="UTF-8" standalone="no"?>
<svg width="211px" height="210px" viewBox="0 0 211 210" version="1.1" xmlns="http://www.w3.org/2000/svg" xmlns:xlink="http://www.w3.org/1999/xlink">
    <!-- Generator: Sketch 40.2 (33826) - http://www.bohemiancoding.com/sketch -->
    <title>sisool</title>
    <desc>Created with Sketch.</desc>
    <defs>
        <polygon id="path-1" points="209.301563 208.996328 209.301563 0.695100324 0.000281250002 0.695100324 0.000281250002 208.996328"></polygon>
    </defs>
    <g id="Materials---Home" stroke="none" stroke-width="1" fill="none" fill-rule="evenodd">
        <g id="Materials" transform="translate(-292.000000, -3304.000000)">
            <g id="sisool" transform="translate(292.854545, 3304.000000)">
                <path d="M138.299625,41.7703979 C129.59775,52.0056335 125.715562,59.7291778 124.34025,63.2065454 C130.034625,65.0763186 135.358687,67.7466235 140.159625,71.126024 C142.2165,57.9443094 139.74525,48.4377628 138.299625,41.7703979" id="Fill-1" fill="#AAA891"></path>
                <path d="M125.257969,68.7509269 C122.730469,67.7852506 120.113906,66.9996473 117.423281,66.4109113 C118.358906,69.3835148 119.252344,72.658417 120.058594,76.198297 C121.923281,73.8778749 123.659531,71.3923081 125.257969,68.7509269" id="Fill-3" fill="#AAA891"></path>
                <path d="M122.857031,94.3016951 C123.215156,98.5198811 123.392344,102.964791 123.332344,107.630827 C131.321719,100.788987 138.741094,92.2257244 144.846094,81.5594332 C142.549219,79.2306139 140.046094,77.105193 137.365781,75.2111613 C133.122656,82.591354 128.187656,88.9013721 122.857031,94.3016951" id="Fill-5" fill="#AAA891"></path>
                <path d="M88.0005937,102.338268 C71.4462187,109.707264 55.9530937,111.96704 51.0630937,112.527785 C50.9055937,113.690329 50.7874687,114.865002 50.7030937,116.049005 L50.6412187,117.609948 C50.6084062,118.367561 50.5624687,119.121442 50.5624687,119.886519 C50.5624687,120.672122 50.6037187,121.449328 50.6393437,122.226534 C55.0699687,121.928901 70.5002812,120.39968 87.8205937,113.040014 C87.7540312,109.557048 87.8093437,105.985445 88.0005937,102.338268" id="Fill-7" fill="#AAA891"></path>
                <path d="M87.6837188,62.9391417 C85.7515313,58.4027957 81.7877813,49.8255376 72.8824688,40.4766715 C71.4312188,47.4640626 68.4415313,58.9066268 70.5180938,71.5191989 C75.6884063,67.7983129 81.4634063,64.8807575 87.6837188,62.9391417" id="Fill-9" fill="#AAA891"></path>
                <path d="M123.272062,110.275474 C123.143625,114.321051 122.851125,118.504715 122.325187,122.847926 C140.637375,108.608166 148.620187,92.004132 150.33675,88.0434597 C149.081437,86.3024433 147.720187,84.6425997 146.273625,83.0620629 C139.75425,94.3012286 131.802375,103.223704 123.272062,110.275474" id="Fill-11" fill="#AAA891"></path>
                <path d="M94.7536875,66.2136707 C82.2915,68.7020366 71.3415,75.388062 63.457125,84.7247988 C72.895875,81.7008791 83.6818125,77.0535037 93.539625,69.9522841 C93.9118125,68.7104338 94.3393125,67.4611192 94.7536875,66.2136707" id="Fill-13" fill="#AAA891"></path>
                <path d="M160.609031,119.301421 C159.611531,120.53954 158.508094,121.878424 157.300594,123.305946 C158.369344,122.741468 159.461531,122.186321 160.549969,121.629308 C160.579031,120.855834 160.600594,120.080494 160.609031,119.301421" id="Fill-15" fill="#AAA891"></path>
                <path d="M166.740188,70.484759 C160.549875,76.2853479 156.642375,85.0678705 155.746125,87.2194159 C159.722063,93.2429967 162.633938,100.006463 164.212688,107.27376 C169.248,92.7708883 167.861438,77.6307635 166.740188,70.484759" id="Fill-17" fill="#AAA891"></path>
                <path d="M118.323469,143.418884 C117.439406,146.756298 115.851281,152.496241 114.688781,155.954948 C114.688781,155.954948 131.208469,140.720588 146.956594,129.690419 C153.785344,122.884034 158.307844,117.082512 160.332844,114.321704 C159.987844,110.936705 159.330656,107.644076 158.393156,104.468074 C147.327844,122.686233 132.758156,135.036627 118.323469,143.418884" id="Fill-19" fill="#AAA891"></path>
                <path d="M121.539187,128.393707 C120.899812,132.390767 120.073875,136.497924 119.037937,140.709578 C133.047,132.25268 147.041062,119.917215 157.57575,101.938842 C156.351375,98.4372155 154.7895,95.0923368 152.91075,91.9527226 C149.50575,98.8831993 140.112937,115.05991 121.539187,128.393707" id="Fill-21" fill="#AAA891"></path>
                <path d="M134.028281,73.0288262 C131.823281,71.6983388 129.516094,70.5208669 127.123594,69.5048075 C125.148281,72.7993031 122.973281,75.8680078 120.606094,78.6819978 C121.279219,81.9363735 121.854844,85.4184063 122.311406,89.0851771 C126.588281,84.4182083 130.555781,79.1027901 134.028281,73.0288262" id="Fill-23" fill="#AAA891"></path>
                <path d="M108.824156,174.280871 C149.428219,173.939386 171.647906,135.328196 178.967906,120.201133 C138.832594,135.750854 116.381344,163.823577 108.824156,174.280871" id="Fill-25" fill="#AAA891"></path>
                <path d="M55.2523125,87.4950302 C54.2510625,84.8471178 50.8845,76.9546968 44.26575,70.7342487 C43.465125,77.9381005 42.7048125,92.5613319 47.0679375,106.862671 C48.6410625,99.8631508 51.44325,93.3338729 55.2523125,87.4950302" id="Fill-27" fill="#AAA891"></path>
                <path d="M30.3439688,120.207011 C37.6817813,135.329409 59.9408438,173.918206 100.471781,174.278352 C92.8939688,163.818259 70.3930313,135.733407 30.3439688,120.207011" id="Fill-29" fill="#AAA891"></path>
                <path d="M106.096219,53.8939738 C83.3730937,101.90348 97.7459062,154.997016 104.104969,171.476025 C128.720906,115.493858 112.863094,67.6952141 106.096219,53.8939738" id="Fill-31" fill="#AAA891"></path>
                <g id="Group-35" transform="translate(0.000000, 0.237920)">
                    <mask id="mask-2" fill="white">
                        <use xlink:href="#path-1"></use>
                    </mask>
                    <g id="Clip-34"></g>
                    <path d="M108.033094,179.747066 L100.711219,179.789052 C45.5974688,179.789052 22.2021563,116.450017 21.9621563,115.800635 L19.7974688,109.931003 L25.7412188,111.950059 C32.8521563,114.363783 39.4615313,117.11806 45.5862188,120.093463 C45.5852813,119.944179 45.5702813,119.797695 45.5702813,119.648412 C45.5702813,118.993431 45.6396563,118.356178 45.6602813,117.706796 C34.1337188,93.9474272 39.3884063,66.0762368 39.6255938,64.8745063 L40.4280938,60.7916083 L43.8330938,63.2071985 C51.9480938,68.9611364 56.6590313,77.1698514 58.9605938,82.1783058 C60.8590313,79.8438883 62.9224688,77.6550221 65.1480938,75.6294344 C60.5824688,55.0507327 67.9577813,34.4440404 68.2390313,33.4820962 L69.5965313,28.8272566 L73.2077813,32.0806993 C86.1171563,43.7163989 91.5977813,56.1031799 93.6555938,61.1825439 C94.6605938,60.9791454 95.6552813,60.7440242 96.6771563,60.5919419 C98.5484063,55.6795886 100.724344,50.7448428 103.332469,45.8128961 L105.704344,41.3278662 L108.490594,45.5684447 C108.600281,45.7354554 112.041844,51.1292473 115.586531,60.7617516 C116.547469,60.9231642 117.480281,61.1629505 118.426219,61.369148 C119.795906,57.7490282 125.071219,46.0862711 137.663719,33.2087212 L141.186844,29.6081948 L142.744031,34.3917913 C143.027156,35.2613665 150.115594,52.8021532 145.569656,75.2189053 C147.915281,77.3107375 150.095906,79.5723793 152.087156,82.0028979 C154.489031,77.0205681 159.583406,68.0458432 167.074969,63.1493513 L170.250281,61.0715145 L171.170906,64.7429504 C171.471844,65.9614753 178.182469,93.9138385 165.505594,117.299999 C165.529969,117.939118 165.601219,118.566108 165.605906,119.210825 C171.201844,116.576908 177.168094,114.120265 183.560906,111.950059 L189.504656,109.931003 L187.339969,115.800635 C187.099969,116.450017 163.137469,179.747066 108.033094,179.747066 M104.650594,0.694820418 C46.8546563,0.694820418 0.000281250002,47.3243894 0.000281250002,104.84604 C0.000281250002,162.366759 46.8546563,208.996328 104.650594,208.996328 C162.448406,208.996328 209.301844,162.366759 209.301844,104.84604 C209.301844,47.3243894 162.448406,0.694820418 104.650594,0.694820418" id="Fill-33" fill="#AAA891" mask="url(#mask-2)"></path>
                </g>
                <path d="M92.716125,72.9333782 C82.21425,80.0765836 70.8995625,84.5961353 61.2855,87.4511782 C59.18925,90.2772975 57.3695625,93.3142795 55.8433125,96.5164061 C62.828625,95.3435992 76.7645625,92.0575008 90.29175,83.3486868 C90.948,79.909573 91.756125,76.4359374 92.716125,72.9333782" id="Fill-36" fill="#AAA891"></path>
                <path d="M94.0167187,154.405761 C93.6585937,154.527053 93.3107812,154.639016 92.9564062,154.755643 C93.5367187,155.36304 94.0926562,155.95924 94.6382812,156.549842 C94.4310937,155.850076 94.2229687,155.140048 94.0167187,154.405761" id="Fill-38" fill="#AAA891"></path>
                <path d="M88.7663437,127.497914 C88.3997812,124.205284 88.1269687,120.794161 87.9629062,117.27854 C74.7319687,122.69659 62.7216562,124.861198 55.7485312,125.717711 C60.0113437,128.160358 63.9938437,130.688844 67.7054062,133.256517 C73.7597812,132.124763 81.0066562,130.325899 88.7663437,127.497914" id="Fill-40" fill="#AAA891"></path>
                <path d="M90.5195625,139.36183 C89.93925,136.231546 89.4170625,132.954778 88.9914375,129.525927 C82.0858125,132.01336 75.5889375,133.700261 69.9714375,134.833881 C73.3989375,137.288659 76.5751875,139.764895 79.5208125,142.217806 C83.374875,141.42194 87.0358125,140.459995 90.5195625,139.36183" id="Fill-42" fill="#AAA891"></path>
                <path d="M89.3739375,88.7156077 C74.4433125,97.5009294 59.7451875,100.115253 54.0076875,100.839277 C52.8489375,103.934106 51.96675,107.160491 51.3855,110.489509 C56.77425,109.840126 72.04425,107.461857 88.1355,100.122717 C88.388625,96.3869028 88.7945625,92.5811119 89.3739375,88.7156077" id="Fill-44" fill="#AAA891"></path>
                <path d="M93.4975313,152.497174 C92.7344063,149.662657 91.9928438,146.613546 91.3065938,143.351706 C88.7453438,144.144774 86.0903438,144.864132 83.3397188,145.502318 C86.3115938,148.136236 88.9994063,150.712305 91.4228438,153.181078 C92.1090938,152.959952 92.7972188,152.735094 93.4975313,152.497174" id="Fill-46" fill="#AAA891"></path>
            </g>
        </g>
    </g>
</svg>