<?xml version="1.0" encoding="UTF-8" standalone="no"?>
<svg width="114px" height="114px" viewBox="0 0 114 114" version="1.1" xmlns="http://www.w3.org/2000/svg" xmlns:xlink="http://www.w3.org/1999/xlink">
    <!-- Generator: Sketch 40.2 (33826) - http://www.bohemiancoding.com/sketch -->
    <title>suede-icon</title>
    <desc>Created with Sketch.</desc>
    <defs>
        <polygon id="path-1" points="113.666435 113.278103 0 113.278103 0 0.543173185 113.666435 0.543173185 113.666435 113.278103"></polygon>
    </defs>
    <g id="Rug-builder" stroke="none" stroke-width="1" fill="none" fill-rule="evenodd">
        <g id="rug-builder-master" transform="translate(-3640.000000, -686.000000)">
            <g id="suede-icon" transform="translate(3640.000000, 686.000000)">
                <g id="Group-3" transform="translate(0.000000, 0.393197)">
                    <mask id="mask-2" fill="white">
                        <use xlink:href="#path-1"></use>
                    </mask>
                    <g id="Clip-2"></g>
                    <path d="M113.666435,56.9107317 C113.666435,88.0416141 88.2211909,113.27829 56.8330286,113.27829 C25.4448662,113.27829 -0.000377567886,88.0416141 -0.000377567886,56.9107317 C-0.000377567886,25.7798494 25.4448662,0.543173185 56.8330286,0.543173185 C88.2211909,0.543173185 113.666435,25.7798494 113.666435,56.9107317" id="Fill-1" fill="#515151" mask="url(#mask-2)"></path>
                </g>
                <path d="M59.7416228,85.9029047 L59.5934274,85.7194129 C56.7371263,82.6506061 53.9393483,81.1002876 51.262392,81.1002876 C50.98016,81.1002876 50.6988719,81.1180751 50.4194717,81.1527139 C46.1878796,81.6751038 43.5052597,85.8411167 41.5249162,89.3826957 L39.7909357,88.9529879 C39.1481263,88.7966454 38.4949339,89.1823526 38.3335236,89.8208292 C38.1730573,90.4583696 38.56384,91.106208 39.2085372,91.2662953 L40.3308577,91.5443415 C39.9712243,92.187499 39.6097031,92.8091243 39.3708914,93.1367882 C36.1587326,93.0712554 32.5472957,93.0469147 30.4064858,93.1779803 C28.7687851,88.4146828 27.5388577,83.7506208 26.6194799,79.2232414 L27.8465756,78.4930189 C28.4157591,78.1541208 28.5998235,77.4220259 28.2590685,76.8575078 C27.9173695,76.2929896 27.1792243,76.110434 26.6100407,76.448396 L26.1380809,76.7301869 C24.4720626,67.4395101 24.1416907,58.8004165 24.5060437,51.2369967 L26.2862763,50.4805611 C26.8960484,50.2221746 27.1782804,49.5209738 26.9168146,48.9161998 C26.6562928,48.3104896 25.948353,48.0296348 25.3395248,48.2898936 L24.6655661,48.5763655 C25.6378034,34.9492906 28.7499067,25.2476296 29.816536,22.2612069 L35.2506818,21.9906501 L35.4819421,23.3677748 C35.5801098,23.9510166 36.0888825,24.3648093 36.6665614,24.3648093 C36.7316919,24.3648093 36.7987102,24.3591922 36.8657285,24.347958 C37.5198648,24.2393608 37.9616192,23.6261612 37.8530685,22.9764504 L37.6671163,21.8698825 L41.2304132,21.692944 L54.8162497,21.692944 L54.8162497,23.6402039 C54.8162497,24.2983403 55.3542839,24.8329006 56.0178595,24.8329006 C56.6814351,24.8329006 57.2194693,24.2983403 57.2194693,23.6402039 L57.2194693,21.692944 L67.3798211,21.692944 C70.6118022,21.6423901 73.2868707,22.3754211 75.3587745,23.8873561 C75.482428,24.0502519 75.6447822,24.1682109 75.8279026,24.2496588 C76.0553872,24.4378316 76.2828719,24.6278766 76.4943099,24.8366454 C79.691366,28.001879 80.2888672,32.7595593 80.3993058,34.5954135 C80.2690449,34.7714159 80.1746529,34.9773761 80.1416157,35.2095494 C80.0934758,35.5456389 80.1784286,35.8667496 80.3473902,36.1335617 C79.2043034,47.6654598 78.9485012,63.9260166 82.7232361,82.0083848 L80.5588282,82.9286524 C79.9490561,83.187975 79.6658802,83.8891758 79.9273459,84.4930136 C80.1227373,84.9461261 80.5663796,85.2166828 81.0326759,85.2166828 C81.1903105,85.2166828 81.3507769,85.1848526 81.5055797,85.1193198 L83.2433359,84.3806717 C83.9720419,87.5936506 84.8149622,90.8534387 85.8202367,94.155355 C82.0492774,95.3527326 67.9348459,97.7231471 59.7416228,85.9029047 M89.3759823,94.457742 C84.1787603,77.9622033 82.7779835,62.3391869 82.9224032,49.6417414 L83.4509982,49.6417414 C84.1145738,49.6417414 84.652608,49.1071811 84.652608,48.4490447 C84.652608,47.7909083 84.1145738,47.2572841 83.4509982,47.2572841 L82.9611039,47.2572841 C83.0602155,43.5640435 83.288644,40.1657004 83.5812591,37.0809785 L84.2344516,37.1727244 C84.300526,37.1830224 84.3656564,37.1867672 84.4307869,37.1867672 C85.1104091,37.1867672 85.7041346,36.6905903 85.8023022,36.0034323 C85.9099091,35.2516776 85.382258,34.5542215 84.6233465,34.4484328 L83.701137,34.3192396 C83.5567172,31.9750382 82.7921423,26.4496881 78.8531653,22.533636 C78.1716553,21.8558398 77.4278465,21.2660447 76.6311783,20.7539528 L75.5400071,18.049321 C75.293644,17.4370576 74.5932556,17.1374791 73.9787639,17.3855675 C73.3623843,17.628975 73.0622178,18.3226864 73.3085809,18.9340136 L73.436954,19.2523157 C71.6085815,18.6512865 69.5744345,18.3591975 67.3279055,18.4106875 L48.7053135,18.4125599 L49.4661128,17.2797789 C49.8342414,16.732112 49.6851021,15.9925277 49.1329091,15.6274165 C48.5807161,15.261369 47.8340756,15.4092859 47.4668908,15.9578889 L45.8169191,18.4125599 L41.1473483,18.4125599 L27.5095962,19.0884838 L27.112206,20.0564967 C27.041412,20.2287543 23.5338064,28.9970412 21.8961057,42.833821 L20.6869445,42.2337279 C20.093219,41.9378942 19.3711204,42.177557 19.0747296,42.767352 C18.7773949,43.3562109 19.0180945,44.0714545 19.61182,44.366352 L21.4996594,45.3025347 C21.5402479,45.3231307 21.5827243,45.3324926 21.6252007,45.3474715 C20.3235354,58.7901184 20.9210366,76.4540131 27.7134829,95.4940962 L28.276059,97.071564 L29.7363028,96.5276419 C30.086497,96.477088 32.0866629,96.2589574 39.9353554,96.431215 L40.3657828,96.4405769 L40.7452385,96.24117 C41.843961,95.6644814 42.6151434,94.2555265 43.78466,92.1219662 C45.4818276,89.0241378 47.805758,84.7832303 50.8281889,84.4096934 C52.6225803,84.1831372 54.7246895,85.350557 57.0835449,87.8623351 C62.9386789,96.2280634 71.6416187,98.5366899 78.5284569,98.5357537 C82.7194604,98.5357537 86.2393371,97.6810189 88.0327845,96.8150499 C89.6676535,96.0267841 89.5166263,94.9024287 89.3759823,94.457742" id="Fill-4" fill="#FEFEFE"></path>
                <path d="M63.8840145,24.4204186 C63.8840145,24.4204186 54.9762441,29.4945286 47.5768574,41.6508606 C47.557979,41.6499244 47.5419324,41.6396264 47.523054,41.6396264 L45.1632547,41.6396264 C44.4996792,41.6396264 43.9616449,42.1741867 43.9616449,42.8323231 C43.9616449,43.4904595 44.4996792,44.0240837 45.1632547,44.0240837 L46.1977907,44.0240837 C41.6188362,52.3645351 37.9243344,63.649281 37.8289985,78.4072646 C37.8289985,78.4072646 41.2809129,44.8600948 63.8840145,24.4204186" id="Fill-6" fill="#FEFEFE"></path>
                <path d="M59.6864035,74.1384588 C59.6864035,74.1384588 63.0137205,60.3456796 69.5267665,48.0863675 L70.2705753,48.8240794 C70.5056113,49.0562528 70.8133291,49.1732756 71.1210469,49.1732756 C71.4278208,49.1732756 71.7355387,49.0562528 71.9705747,48.8240794 C72.4397028,48.3587967 72.4397028,47.6032972 71.9705747,47.1380145 L71.026655,46.2018318 C70.9275434,46.1044688 70.8104973,46.038936 70.6915635,45.9818289 C72.5878982,42.6658698 74.7221006,39.5305941 77.0988905,36.9027293 C77.0988905,36.9027293 61.0522553,48.4496064 59.6864035,74.1384588" id="Fill-8" fill="#FEFEFE"></path>
                <path d="M47.5881845,56.2769361 C46.994459,55.9801662 46.2723604,56.2198289 45.9759696,56.809624 L45.5040097,57.7458067 C45.2076189,58.3346656 45.4473746,59.0508453 46.0411001,59.3448067 C46.2138374,59.4309355 46.3969578,59.4711913 46.5781904,59.4711913 C47.018057,59.4711913 47.4428208,59.2296562 47.6533149,58.8121187 L48.1252748,57.8759361 C48.4226095,57.2870772 48.18191,56.5708974 47.5881845,56.2769361" id="Fill-10" fill="#FEFEFE"></path>
                <path d="M60.8316613,43.3933774 C60.3625332,43.8586602 60.3625332,44.6141596 60.8316613,45.0794424 L61.775581,46.0156251 C62.010617,46.2477984 62.3183348,46.3648212 62.6251087,46.3648212 C62.9328266,46.3648212 63.2405444,46.2477984 63.4755804,46.0156251 C63.9447085,45.5503423 63.9447085,44.7948429 63.4755804,44.3295601 L62.5316607,43.3933774 C62.0615887,42.9290308 61.3017333,42.9290308 60.8316613,43.3933774" id="Fill-12" fill="#FEFEFE"></path>
                <path d="M52.7317918,72.54311 C52.3334577,72.0160391 51.5811537,71.9083781 51.0497269,72.3043834 C50.5183001,72.6994525 50.4106932,73.4465262 50.8090273,73.9726609 L52.2249069,75.8450262 C52.4608868,76.1577112 52.8214642,76.3224794 53.1867611,76.3224794 C53.4378437,76.3224794 53.6908142,76.2447762 53.9069718,76.0837528 C54.4383986,75.6886837 54.5460055,74.9425461 54.1476714,74.4154753 L52.7317918,72.54311 Z" id="Fill-14" fill="#FEFEFE"></path>
                <path d="M62.8397561,30.1935762 L62.8397561,32.0659416 C62.8397561,32.724078 63.3777903,33.2577021 64.0413659,33.2577021 C64.7049414,33.2577021 65.2429757,32.724078 65.2429757,32.0659416 L65.2429757,30.1935762 C65.2429757,29.5354398 64.7049414,29.0018157 64.0413659,29.0018157 C63.3777903,29.0018157 62.8397561,29.5354398 62.8397561,30.1935762" id="Fill-16" fill="#FEFEFE"></path>
            </g>
        </g>
    </g>
</svg>