<?xml version="1.0" encoding="UTF-8" standalone="no"?>
<svg width="211px" height="209px" viewBox="0 0 211 209" version="1.1" xmlns="http://www.w3.org/2000/svg" xmlns:xlink="http://www.w3.org/1999/xlink">
    <!-- Generator: Sketch 40.2 (33826) - http://www.bohemiancoding.com/sketch -->
    <title>wool</title>
    <desc>Created with Sketch.</desc>
    <defs>
        <polygon id="path-1" points="0.000976874006 208.064132 209.741687 208.064132 209.741687 0.24114895 0.000976874006 0.24114895 0.000976874006 208.064132"></polygon>
    </defs>
    <g id="Materials---Home" stroke="none" stroke-width="1" fill="none" fill-rule="evenodd">
        <g id="Materials" transform="translate(-291.000000, -2744.000000)">
            <g id="wool" transform="translate(291.854545, 2744.000000)">
                <path d="M153.31764,126.922998 C122.436699,116.484797 106.820391,97.0854638 99.1323923,82.2857527 C92.6674402,69.8478006 90.614051,58.8365833 89.9712679,53.7104047 C88.1034848,54.293101 86.2943142,54.997757 84.5242185,55.77404 C85.3682376,63.7072272 93.126571,115.6214 149.546906,133.375246 C150.959466,131.332905 152.198142,129.162797 153.31764,126.922998" id="Fill-1" fill="#EBD5B7"></path>
                <path d="M98.6738477,104.28244 C96.3273963,101.157949 94.2915909,98.0160356 92.5195415,94.8973522 C87.9184649,95.8497993 77.8879226,97.5804653 65.6867663,97.5804653 C61.7968541,97.5804653 57.6510008,97.3229948 53.4289514,96.8912963 C53.1241667,99.1427108 52.9170694,101.421227 52.9170694,103.755884 C52.9170694,104.836099 53.020618,105.889211 53.0811842,106.950067 C61.2341746,107.869604 79.5740072,109.017574 98.6738477,104.28244" id="Fill-3" fill="#EBD5B7"></path>
                <path d="M76.6140789,147.448232 C101.950283,150.470122 123.072253,141.855509 136.000203,133.167334 C133.806144,132.230374 131.727356,131.221786 129.709135,130.188033 C123.863521,133.645493 105.756184,142.219453 70.3132416,142.523384 C72.2884809,144.304382 74.3750837,145.973101 76.6140789,147.448232" id="Fill-5" fill="#EBD5B7"></path>
                <path d="M117.669358,122.879357 C114.564852,120.653108 111.720195,118.301029 109.117803,115.881194 C105.9625,117.249852 94.0563596,121.731387 73.3876595,121.731387 C68.1105861,121.731387 62.2298046,121.417776 55.8097887,120.705377 C56.8823963,123.806637 58.2226675,126.772387 59.8286483,129.579396 C81.3687201,132.109575 100.794837,129.852353 117.669358,122.879357" id="Fill-7" fill="#EBD5B7"></path>
                <path d="M131.023226,57.5891099 C127.922628,55.9281351 124.63447,54.5730275 121.199781,53.5431457 C121.705801,56.5727792 123.006998,62.2100269 126.379167,68.5848403 C132.5999,80.3645973 144.384908,90.725363 158.256519,96.445853 C157.930243,94.173144 157.471112,91.9546392 156.867404,89.786467 C138.160267,77.6659973 132.650698,64.2968926 131.023226,57.5891099" id="Fill-9" fill="#EBD5B7"></path>
                <path d="M155.950706,86.8389143 C151.9338,75.196604 143.907803,65.4185346 133.498234,59.0708233 C135.561392,65.6159931 141.147157,76.6214029 155.950706,86.8389143" id="Fill-11" fill="#EBD5B7"></path>
                <path d="M102.440088,51.4640235 C102.461579,51.9363753 105.265207,99.2547975 157.354083,115.831635 C157.869872,113.680886 158.295789,111.499163 158.532193,109.253556 C122.647703,99.9400948 111.575813,62.1171052 109.153166,51.4446648 C108.061021,51.3807811 106.978644,51.2839877 105.870869,51.2839877 C104.243397,51.2839877 102.637416,51.3807811 101.043158,51.5259712 L102.440088,51.4640235 Z" id="Fill-13" fill="#EBD5B7"></path>
                <path d="M117.219215,52.5264278 C115.230299,52.0908575 113.202309,51.7520806 111.137197,51.5468786 C113.710283,62.5116351 124.618058,98.2419514 158.648441,107.317301 C158.724637,106.134485 158.828186,104.955542 158.828186,103.755304 C158.828186,102.742845 158.734406,101.759424 158.679701,100.764387 C125.075235,88.1386561 118.266423,58.6515143 117.219215,52.5264278" id="Fill-15" fill="#EBD5B7"></path>
                <path d="M85.461236,79.3865968 C84.3534609,76.229196 83.4938118,73.2711897 82.8275837,70.5919483 C80.848437,70.9984806 74.2721212,72.1387069 63.6027033,72.283897 C61.1683333,75.4800151 59.0817305,78.943283 57.4269059,82.6504703 C67.8130303,82.3852564 76.5013477,81.2856833 85.461236,79.3865968" id="Fill-17" fill="#EBD5B7"></path>
                <path d="M140.265431,134.85754 C128.845774,143.129504 111.42811,151.891243 88.8017544,151.891243 C87.4145933,151.891243 85.9942185,151.825423 84.5757974,151.757668 C91.1013158,154.613073 98.2911085,156.225651 105.875558,156.225651 C122.308533,156.225651 137.010486,148.770624 146.73429,137.095404 C144.501156,136.400427 142.352033,135.645438 140.265431,134.85754" id="Fill-19" fill="#EBD5B7"></path>
                <path d="M91.5303589,93.1570068 C89.6391308,89.6705085 88.0839474,86.245958 86.7925199,82.9704693 C77.3481021,84.9702209 66.9912839,86.1065755 55.9584689,86.4008274 C54.9659649,89.1904132 54.2098644,92.0864718 53.7097049,95.0696445 C70.3868979,96.7751442 85.233429,94.4211287 91.5303589,93.1570068" id="Fill-21" fill="#EBD5B7"></path>
                <path d="M127.672939,129.108593 C125.514047,127.935457 123.411814,126.731347 121.448297,125.461417 C107.998696,131.431634 92.9548365,134.447717 76.5492145,134.447717 C71.9579067,134.447717 67.2220215,134.13217 62.4197089,133.655947 C64.1624522,136.143537 66.1122927,138.484002 68.2555542,140.630879 C102.452006,140.669597 120.94423,132.775127 127.672939,129.108593" id="Fill-23" fill="#EBD5B7"></path>
                <g id="Group-27" transform="translate(0.000000, 0.685297)">
                    <mask id="mask-2" fill="white">
                        <use xlink:href="#path-1"></use>
                    </mask>
                    <g id="Clip-26"></g>
                    <path d="M105.870674,160.300654 C97.8485845,160.300654 90.2016148,158.662909 83.2501794,155.718454 C82.7558812,156.032065 75.3589912,159.70247 67.0907297,159.70247 C62.831559,159.70247 57.8534091,158.724857 52.4708333,155.80944 C38.8102273,148.393129 26.8357057,158.990071 26.3355463,159.445 L23.7331539,156.639927 C23.879685,156.508288 38.2123804,143.733495 54.3171252,152.466196 C65.6703549,158.624192 74.9975478,154.835698 78.0786085,153.209569 C60.2369817,143.460538 48.1139753,124.6439 48.1139753,103.070587 C48.1139753,71.5120664 74.0284888,45.8385846 105.870674,45.8385846 C137.722628,45.8385846 163.633234,71.5120664 163.633234,103.070587 C163.633234,134.621364 137.722628,160.300654 105.870674,160.300654 M104.866447,0.24114895 C46.953449,0.24114895 0.000976874006,46.7639295 0.000976874006,104.154673 C0.000976874006,161.541545 46.953449,208.064326 104.866447,208.064326 C162.785307,208.064326 209.741687,161.541545 209.741687,104.154673 C209.741687,46.7639295 162.785307,0.24114895 104.866447,0.24114895" id="Fill-25" fill="#EBD5B7" mask="url(#mask-2)"></path>
                </g>
                <path d="M107.597396,114.425034 C105.299789,112.18717 103.185833,109.895103 101.259438,107.570125 C89.3474362,110.723654 77.7675718,111.63932 68.4677313,111.63932 C61.4791746,111.63932 56.4971172,111.135994 53.4375478,110.700424 C53.8068062,113.439677 54.3577632,116.113111 55.1334011,118.697495 C84.867492,122.123981 102.632923,116.38994 107.597396,114.425034" id="Fill-28" fill="#EBD5B7"></path>
                <path d="M156.332273,119.506687 C103.237217,102.703353 98.8608214,55.3094317 98.6166029,51.8364845 C96.3150877,52.1481592 94.06437,52.6088958 91.870311,53.207079 C93.304362,64.3286409 102.238852,107.771455 154.155797,125.198139 C155.152209,123.008673 156.002089,120.741771 156.685901,118.407114 L156.332273,119.506687 Z" id="Fill-30" fill="#EBD5B7"></path>
                <path d="M82.3856459,68.7317727 C81.1704147,63.328765 80.7620813,59.3273258 80.6370415,57.6353772 C74.6605263,60.8605333 69.367823,65.1988136 65.0598086,70.3598377 C74.5823764,70.1333412 80.5393541,69.1015235 82.3856459,68.7317727" id="Fill-32" fill="#EBD5B7"></path>
            </g>
        </g>
    </g>
</svg>